<svg version="1.1" id="Layer_1" xmlns="http://www.w3.org/2000/svg" xmlns:xlink="http://www.w3.org/1999/xlink" x="0px" y="0px"
	 width="100%" viewBox="0 0 153 62" enable-background="new 0 0 153 62" xml:space="preserve">
<path fill="#F5F7F7" opacity="1.000000" stroke="none" 
	d="
M14.000000,63.000000 
	C10.969407,63.000000 7.938814,63.000000 4.454146,62.537064 
	C4.480130,56.910938 2.507239,51.370796 6.438873,46.710754 
	C6.807401,46.273952 6.739309,44.963524 6.350876,44.472446 
	C2.924056,40.140083 3.753183,35.487305 5.390139,30.905773 
	C6.277824,31.185404 7.343244,31.559294 7.415390,31.419727 
	C9.727548,26.946903 12.074440,22.480688 14.061694,17.861021 
	C14.449989,16.958370 13.387083,15.431448 12.539264,12.762409 
	C9.562014,17.860640 7.369613,21.614897 5.002144,24.961477 
	C4.551383,16.702534 4.275692,8.851267 4.000000,1.000000 
	C53.936722,1.000000 103.873444,1.000000 153.905090,1.000000 
	C153.905090,21.576843 153.905090,42.154270 153.905090,63.000000 
	C109.646133,63.000000 65.291725,63.000000 20.503433,62.647362 
	C25.500818,52.198818 30.928373,42.100914 36.365826,32.008347 
	C37.813057,29.322115 38.935776,26.662741 35.447716,22.906965 
	C28.074121,36.690708 21.037062,49.845352 14.000000,63.000000 
M129.140457,48.619694 
	C129.105148,40.289356 126.949982,32.037468 128.532639,23.606781 
	C128.878937,21.762070 127.659805,19.331226 126.517380,17.593952 
	C125.640320,16.260199 123.819115,14.914552 122.297829,14.760752 
	C118.383171,14.364982 114.401878,14.628389 110.292938,14.628389 
	C110.292938,29.090279 110.292938,43.124069 110.292938,57.319336 
	C113.625801,57.319336 116.617180,57.354088 119.607483,57.312096 
	C125.818108,57.224892 127.542030,55.769070 129.140457,48.619694 
M137.317398,27.087154 
	C138.311569,25.033777 139.114929,21.409801 140.340469,21.260906 
	C142.735489,20.969927 145.366364,22.620218 149.162323,23.888821 
	C151.399734,22.898275 150.906052,20.306028 149.071075,17.365648 
	C145.418091,11.512146 137.896332,11.768909 134.575287,17.887300 
	C129.828583,26.632202 133.268906,35.127991 142.570236,39.163052 
	C144.579727,40.034801 146.500793,43.122639 146.749023,45.378288 
	C146.933472,47.054306 144.446045,50.437366 142.972641,50.540318 
	C140.936584,50.682590 138.676559,48.543671 136.637650,47.192760 
	C135.972183,46.751842 135.698074,45.720249 134.854263,44.302170 
	C133.669678,46.207649 131.851364,47.959373 132.203201,48.775303 
	C133.529663,51.851448 134.934967,55.810268 137.509094,57.170010 
	C140.007599,58.489815 144.839096,58.209164 147.127182,56.544128 
	C152.425385,52.688648 151.778244,46.319019 151.175415,40.486195 
	C150.682068,35.712650 147.878006,32.804222 143.281326,31.268297 
	C141.214020,30.577534 139.441956,29.003105 137.317398,27.087154 
M57.631557,41.011707 
	C59.258228,44.250053 59.829605,47.730057 56.455654,49.887424 
	C51.068920,53.331814 49.095364,48.209686 46.658169,44.920887 
	C43.054890,48.542225 43.234882,51.750992 47.005661,55.702782 
	C50.211052,59.062046 55.982174,59.617828 59.195282,56.538895 
	C64.137077,51.803452 63.424107,45.620220 62.719879,39.678223 
	C62.184250,35.158730 59.545666,32.174904 54.831421,31.280050 
	C53.553371,31.037453 52.236748,30.548864 51.147274,29.847725 
	C48.081043,27.874435 48.129318,24.691845 50.124535,22.593559 
	C51.274223,21.384472 54.406197,21.708752 56.569473,21.971725 
	C57.566250,22.092894 58.379677,23.722347 59.977501,25.407486 
	C60.769592,23.248388 62.150875,21.427946 61.825432,19.995178 
	C60.950718,16.144253 58.143120,13.027611 54.171764,13.491694 
	C51.352264,13.821174 47.722176,15.831900 46.329468,18.196779 
	C41.430267,26.515837 45.085144,35.533325 53.997551,38.922920 
	C55.069405,39.330566 56.063484,39.942734 57.631557,41.011707 
M89.182274,52.815361 
	C91.695183,45.665253 97.451439,51.280033 100.833839,49.301018 
	C103.831406,51.842339 101.069962,58.765598 108.410278,56.887764 
	C107.938965,54.856167 107.515572,52.968006 107.062157,51.087090 
	C104.375679,39.942768 101.750259,28.782621 98.894379,17.681807 
	C98.581001,16.463711 96.930870,15.589521 95.900734,14.555827 
	C94.891754,15.584034 93.532715,16.448545 92.957115,17.679415 
	C92.126335,19.455980 91.828987,21.489971 91.364822,23.428675 
	C88.711121,34.512535 86.075439,45.600704 83.424225,56.726906 
	C86.974670,57.900272 88.703476,56.907013 89.182274,52.815361 
M70.968277,24.535404 
	C70.967575,22.212225 71.206100,19.852747 70.861496,17.581751 
	C70.698280,16.506100 69.420235,15.599609 68.647270,14.616481 
	C67.943527,15.655640 66.657768,16.680002 66.630905,17.736370 
	C66.462280,24.369240 66.581032,31.009226 66.590813,37.646877 
	C66.600243,44.048332 66.592857,50.449810 66.592857,56.858326 
	C72.368294,56.858326 77.408646,56.858326 82.368729,56.858326 
	C82.368729,54.414192 82.368729,52.344242 82.368729,49.808647 
	C78.485031,49.808647 74.911652,49.808647 70.968277,49.808647 
	C70.968277,41.393887 70.968277,33.458763 70.968277,24.535404 
M13.542324,28.079208 
	C12.320004,31.702488 7.972919,35.005245 12.783099,40.457348 
	C18.162149,30.139044 23.212221,20.676334 27.965214,11.066688 
	C28.600716,9.781828 27.733259,7.753595 27.561800,6.069608 
	C26.993914,5.898677 26.426027,5.727746 25.858141,5.556815 
	C21.873255,12.847696 17.888371,20.138578 13.542324,28.079208 
M29.988024,15.371493 
	C26.766233,21.338966 23.449226,27.257891 20.369665,33.297878 
	C19.143131,35.703499 17.851156,38.478821 22.045538,40.760166 
	C26.069929,33.185772 30.031712,25.809832 33.877586,18.373943 
	C34.290859,17.574892 34.220123,16.392368 34.047150,15.447550 
	C33.466988,12.278646 32.136425,12.185899 29.988024,15.371493 
M8.004701,56.505360 
	C8.220177,58.874405 9.291648,61.642128 11.597218,58.989643 
	C14.421268,55.740658 16.128328,51.424526 17.842463,47.368671 
	C18.324896,46.227173 17.137754,44.380058 16.716402,42.856590 
	C16.291521,42.842800 15.866640,42.829010 15.441759,42.815220 
	C12.962358,47.114609 10.482958,51.413994 8.004701,56.505360 
M33.268112,44.726673 
	C31.780354,47.729767 29.435349,50.749802 34.114815,54.438469 
	C35.490246,51.054535 36.846653,48.149677 37.786816,45.115826 
	C38.037777,44.305988 37.015400,43.101551 36.577610,42.078278 
	C35.609486,42.744835 34.641357,43.411396 33.268112,44.726673 
M17.476847,12.595023 
	C19.989058,9.827564 19.721294,7.378218 16.858263,4.685959 
	C14.629351,7.688776 14.087372,10.107594 17.476847,12.595023 
z"/>
<path fill="#399BD4" opacity="1.000000" stroke="none" 
	d="
M14.428463,63.000000 
	C21.037062,49.845352 28.074121,36.690708 35.447716,22.906965 
	C38.935776,26.662741 37.813057,29.322115 36.365826,32.008347 
	C30.928373,42.100914 25.500818,52.198818 20.034777,62.647362 
	C18.285641,63.000000 16.571283,63.000000 14.428463,63.000000 
z"/>
<path fill="#F5F7F8" opacity="1.000000" stroke="none" 
	d="
M5.104810,30.760662 
	C3.753183,35.487305 2.924056,40.140083 6.350876,44.472446 
	C6.739309,44.963524 6.807401,46.273952 6.438873,46.710754 
	C2.507239,51.370796 4.480130,56.910938 4.000036,62.537064 
	C3.007407,63.000000 2.014814,63.000000 1.000000,63.000000 
	C1.000000,43.320988 0.986177,23.641935 1.032067,3.963024 
	C1.035028,2.693033 -0.033628,0.389944 3.500000,1.000000 
	C4.275692,8.851267 4.551383,16.702534 4.955727,25.343311 
	C5.091190,27.675434 5.098000,29.218048 5.104810,30.760662 
z"/>
<path fill="#38393C" opacity="1.000000" stroke="none" 
	d="
M129.107056,49.019051 
	C127.542030,55.769070 125.818108,57.224892 119.607483,57.312096 
	C116.617180,57.354088 113.625801,57.319336 110.292938,57.319336 
	C110.292938,43.124069 110.292938,29.090279 110.292938,14.628389 
	C114.401878,14.628389 118.383171,14.364982 122.297829,14.760752 
	C123.819115,14.914552 125.640320,16.260199 126.517380,17.593952 
	C127.659805,19.331226 128.878937,21.762070 128.532639,23.606781 
	C126.949982,32.037468 129.105148,40.289356 129.107056,49.019051 
M116.606560,38.921211 
	C115.804153,39.669655 114.398636,40.353199 114.309822,41.178432 
	C114.016640,43.902836 114.199333,46.678452 114.199333,49.700695 
	C116.282890,49.807537 117.886597,49.976952 119.487709,49.955257 
	C123.996834,49.894165 125.962990,47.201439 124.857796,42.867924 
	C123.823708,38.813248 120.797714,38.654766 116.606560,38.921211 
M120.918846,31.906088 
	C125.020294,31.023140 125.213188,28.125523 124.021576,25.067806 
	C122.024055,19.942080 117.900040,22.450411 114.445847,22.351900 
	C114.445847,25.674696 114.445847,28.574394 114.445847,31.924345 
	C116.522308,31.924345 118.300171,31.924345 120.918846,31.906088 
z"/>
<path fill="#3B3C3F" opacity="1.000000" stroke="none" 
	d="
M137.426666,27.458395 
	C139.441956,29.003105 141.214020,30.577534 143.281326,31.268297 
	C147.878006,32.804222 150.682068,35.712650 151.175415,40.486195 
	C151.778244,46.319019 152.425385,52.688648 147.127182,56.544128 
	C144.839096,58.209164 140.007599,58.489815 137.509094,57.170010 
	C134.934967,55.810268 133.529663,51.851448 132.203201,48.775303 
	C131.851364,47.959373 133.669678,46.207649 134.854263,44.302170 
	C135.698074,45.720249 135.972183,46.751842 136.637650,47.192760 
	C138.676559,48.543671 140.936584,50.682590 142.972641,50.540318 
	C144.446045,50.437366 146.933472,47.054306 146.749023,45.378288 
	C146.500793,43.122639 144.579727,40.034801 142.570236,39.163052 
	C133.268906,35.127991 129.828583,26.632202 134.575287,17.887300 
	C137.896332,11.768909 145.418091,11.512146 149.071075,17.365648 
	C150.906052,20.306028 151.399734,22.898275 149.162323,23.888821 
	C145.366364,22.620218 142.735489,20.969927 140.340469,21.260906 
	C139.114929,21.409801 138.311569,25.033777 137.426666,27.458395 
z"/>
<path fill="#3B3C3F" opacity="1.000000" stroke="none" 
	d="
M57.362583,40.735909 
	C56.063484,39.942734 55.069405,39.330566 53.997551,38.922920 
	C45.085144,35.533325 41.430267,26.515837 46.329468,18.196779 
	C47.722176,15.831900 51.352264,13.821174 54.171764,13.491694 
	C58.143120,13.027611 60.950718,16.144253 61.825432,19.995178 
	C62.150875,21.427946 60.769592,23.248388 59.977501,25.407486 
	C58.379677,23.722347 57.566250,22.092894 56.569473,21.971725 
	C54.406197,21.708752 51.274223,21.384472 50.124535,22.593559 
	C48.129318,24.691845 48.081043,27.874435 51.147274,29.847725 
	C52.236748,30.548864 53.553371,31.037453 54.831421,31.280050 
	C59.545666,32.174904 62.184250,35.158730 62.719879,39.678223 
	C63.424107,45.620220 64.137077,51.803452 59.195282,56.538895 
	C55.982174,59.617828 50.211052,59.062046 47.005661,55.702782 
	C43.234882,51.750992 43.054890,48.542225 46.658169,44.920887 
	C49.095364,48.209686 51.068920,53.331814 56.455654,49.887424 
	C59.829605,47.730057 59.258228,44.250053 57.362583,40.735909 
z"/>
<path fill="#393A3D" opacity="1.000000" stroke="none" 
	d="
M89.105408,53.233444 
	C88.703476,56.907013 86.974670,57.900272 83.424225,56.726906 
	C86.075439,45.600704 88.711121,34.512535 91.364822,23.428675 
	C91.828987,21.489971 92.126335,19.455980 92.957115,17.679415 
	C93.532715,16.448545 94.891754,15.584034 95.900734,14.555826 
	C96.930870,15.589521 98.581001,16.463711 98.894379,17.681807 
	C101.750259,28.782621 104.375679,39.942768 107.062157,51.087090 
	C107.515572,52.968006 107.938965,54.856167 108.410278,56.887764 
	C101.069962,58.765598 103.831406,51.842339 100.833839,49.301018 
	C97.451439,51.280033 91.695183,45.665253 89.105408,53.233444 
M97.411652,30.119349 
	C97.029526,28.714170 96.647400,27.308990 96.265274,25.903812 
	C95.932198,25.977398 95.599113,26.050982 95.266037,26.124567 
	C94.141953,31.199360 93.017860,36.274151 91.868927,41.461117 
	C94.979515,41.461117 97.358185,41.461117 99.987862,41.461117 
	C99.155869,37.687275 98.408890,34.299030 97.411652,30.119349 
z"/>
<path fill="#36373A" opacity="1.000000" stroke="none" 
	d="
M70.968277,25.029522 
	C70.968277,33.458763 70.968277,41.393887 70.968277,49.808647 
	C74.911652,49.808647 78.485031,49.808647 82.368729,49.808647 
	C82.368729,52.344242 82.368729,54.414192 82.368729,56.858326 
	C77.408646,56.858326 72.368294,56.858326 66.592857,56.858326 
	C66.592857,50.449810 66.600243,44.048332 66.590813,37.646877 
	C66.581032,31.009226 66.462280,24.369240 66.630905,17.736370 
	C66.657768,16.680002 67.943527,15.655640 68.647270,14.616480 
	C69.420235,15.599609 70.698280,16.506100 70.861496,17.581751 
	C71.206100,19.852747 70.967575,22.212225 70.968277,25.029522 
z"/>
<path fill="#36B06B" opacity="1.000000" stroke="none" 
	d="
M13.722904,27.754333 
	C17.888371,20.138578 21.873255,12.847696 25.858141,5.556815 
	C26.426027,5.727746 26.993914,5.898677 27.561800,6.069608 
	C27.733259,7.753595 28.600716,9.781828 27.965214,11.066688 
	C23.212221,20.676334 18.162149,30.139044 12.783099,40.457348 
	C7.972919,35.005245 12.320004,31.702488 13.722904,27.754333 
z"/>
<path fill="#E7574B" opacity="1.000000" stroke="none" 
	d="
M30.166481,15.037241 
	C32.136425,12.185899 33.466988,12.278646 34.047150,15.447550 
	C34.220123,16.392368 34.290859,17.574892 33.877586,18.373943 
	C30.031712,25.809832 26.069929,33.185772 22.045538,40.760166 
	C17.851156,38.478821 19.143131,35.703499 20.369665,33.297878 
	C23.449226,27.257891 26.766233,21.338966 30.166481,15.037241 
z"/>
<path fill="#F2A228" opacity="1.000000" stroke="none" 
	d="
M5.390139,30.905773 
	C5.098000,29.218048 5.091190,27.675434 5.130796,25.750988 
	C7.369613,21.614897 9.562014,17.860640 12.539264,12.762409 
	C13.387083,15.431448 14.449989,16.958370 14.061694,17.861021 
	C12.074440,22.480688 9.727548,26.946903 7.415390,31.419727 
	C7.343244,31.559294 6.277824,31.185404 5.390139,30.905773 
z"/>
<path fill="#C14436" opacity="1.000000" stroke="none" 
	d="
M8.004129,56.109371 
	C10.482958,51.413994 12.962358,47.114609 15.441759,42.815220 
	C15.866640,42.829010 16.291521,42.842800 16.716402,42.856590 
	C17.137754,44.380058 18.324896,46.227173 17.842463,47.368671 
	C16.128328,51.424526 14.421268,55.740658 11.597218,58.989643 
	C9.291648,61.642128 8.220177,58.874405 8.004129,56.109371 
z"/>
<path fill="#3EB8A0" opacity="1.000000" stroke="none" 
	d="
M33.470673,44.402313 
	C34.641357,43.411396 35.609486,42.744835 36.577610,42.078278 
	C37.015400,43.101551 38.037777,44.305988 37.786816,45.115826 
	C36.846653,48.149677 35.490246,51.054535 34.114815,54.438469 
	C29.435349,50.749802 31.780354,47.729767 33.470673,44.402313 
z"/>
<path fill="#EFCB36" opacity="1.000000" stroke="none" 
	d="
M17.102915,12.540367 
	C14.087372,10.107594 14.629351,7.688776 16.858263,4.685959 
	C19.721294,7.378218 19.989058,9.827564 17.102915,12.540367 
z"/>
<path fill="#EEF0F0" opacity="1.000000" stroke="none" 
	d="
M117.052582,38.918892 
	C120.797714,38.654766 123.823708,38.813248 124.857796,42.867924 
	C125.962990,47.201439 123.996834,49.894165 119.487709,49.955257 
	C117.886597,49.976952 116.282890,49.807537 114.199333,49.700695 
	C114.199333,46.678452 114.016640,43.902836 114.309822,41.178432 
	C114.398636,40.353199 115.804153,39.669655 117.052582,38.918892 
z"/>
<path fill="#EDEFEF" opacity="1.000000" stroke="none" 
	d="
M120.498444,31.915216 
	C118.300171,31.924345 116.522308,31.924345 114.445847,31.924345 
	C114.445847,28.574394 114.445847,25.674696 114.445847,22.351900 
	C117.900040,22.450411 122.024055,19.942080 124.021576,25.067806 
	C125.213188,28.125523 125.020294,31.023140 120.498444,31.915216 
z"/>
<path fill="#E5E7E7" opacity="1.000000" stroke="none" 
	d="
M97.536774,30.515064 
	C98.408890,34.299030 99.155869,37.687275 99.987862,41.461117 
	C97.358185,41.461117 94.979515,41.461117 91.868927,41.461117 
	C93.017860,36.274151 94.141953,31.199360 95.266037,26.124567 
	C95.599113,26.050982 95.932198,25.977398 96.265274,25.903812 
	C96.647400,27.308990 97.029526,28.714170 97.536774,30.515064 
z"/>
</svg>