<?xml version="1.0" encoding="UTF-8"?>
<!-- Generator: visioncortex VTracer 0.6.2 -->
<svg version="1.1" xmlns="http://www.w3.org/2000/svg" width="1280" height="322">
<path d="M0 0 C422.4 0 844.8 0 1280 0 C1280 106.26 1280 212.52 1280 322 C857.6 322 435.2 322 0 322 C0 215.74 0 109.48 0 0 Z " fill="#FAFCFC" transform="translate(0,0)"/>
<path d="M0 0 C1.81065382 -0.00067522 3.62130755 -0.00164706 5.43196106 -0.00289917 C9.21677518 -0.00436776 13.0015656 -0.00224993 16.78637695 0.00244141 C21.59597524 0.00811764 26.40551744 0.00486769 31.21511364 -0.00113106 C34.953297 -0.00477696 38.69146748 -0.00357941 42.42965126 -0.00100327 C44.20075805 -0.00034402 45.97186607 -0.00112663 47.74297142 -0.00348282 C99.90926301 -0.05763582 99.90926301 -0.05763582 118.43359375 17.01171875 C122.88336978 21.8633468 126.23417461 27.3795936 129.39453125 33.1328125 C129.73871094 33.74640625 130.08289062 34.36 130.4375 34.9921875 C133.61948575 42.10944542 133.72995639 48.67079498 133.70703125 56.3828125 C133.72314453 57.45144531 133.73925781 58.52007812 133.75585938 59.62109375 C133.76216132 69.99410313 132.61903592 78.87627031 125.20703125 86.5078125 C124.72451904 87.00893555 124.24200684 87.51005859 123.74487305 88.02636719 C119.96888304 91.83797385 116.11939287 94.63665919 111.39453125 97.1328125 C113.70453125 98.1228125 116.01453125 99.1128125 118.39453125 100.1328125 C118.39453125 100.7928125 118.39453125 101.4528125 118.39453125 102.1328125 C119.07515625 102.2978125 119.75578125 102.4628125 120.45703125 102.6328125 C130.78013746 107.90418588 134.90848579 120.35390768 138.59765625 130.58984375 C142.35719765 142.5872038 139.77937885 153.43517742 136.39453125 165.1328125 C136.16765625 165.95265625 135.94078125 166.7725 135.70703125 167.6171875 C132.06786832 178.98957165 122.43764296 186.58134759 112.27832031 191.95776367 C93.13926972 201.67865679 73.06494756 201.44221305 52.0546875 201.3984375 C49.75206969 201.39978762 47.44945217 201.40173103 45.14683533 201.40423584 C40.36063884 201.40716189 35.57451772 201.40296538 30.78833008 201.39355469 C24.64473893 201.38206424 18.50132071 201.38879553 12.35773563 201.40069962 C7.6215635 201.40790416 2.8854329 201.40563846 -1.85074043 201.40044403 C-4.1182412 201.39910863 -6.38574572 201.40075143 -8.65324211 201.40540314 C-11.80270402 201.41045566 -14.95187804 201.40278056 -18.10131836 201.39160156 C-19.5091861 201.39767426 -19.5091861 201.39767426 -20.94549561 201.40386963 C-21.79874924 201.39822998 -22.65200287 201.39259033 -23.53111267 201.38677979 C-24.27412093 201.38602573 -25.01712919 201.38527168 -25.78265285 201.38449478 C-27.60546875 201.1328125 -27.60546875 201.1328125 -29.60546875 199.1328125 C-29.80083864 196.52677797 -29.87035073 194.02718822 -29.85270691 191.42015076 C-29.85512132 190.61468766 -29.85753574 189.80922456 -29.86002332 188.97935349 C-29.86568411 186.26537006 -29.85697937 183.55161954 -29.84838867 180.83764648 C-29.84946096 178.89811133 -29.85139884 176.95857648 -29.85414124 175.01904297 C-29.85900098 169.74030553 -29.85132009 164.46165224 -29.84118819 159.18292499 C-29.83242722 153.6700517 -29.83416475 148.1571812 -29.83454895 142.64430237 C-29.83361149 133.38598211 -29.82491613 124.12769457 -29.8112793 114.86938477 C-29.79554829 104.14935592 -29.7902813 93.4293629 -29.79101485 82.70932335 C-29.79162419 72.41609983 -29.78652769 62.12288804 -29.77822304 51.82966805 C-29.77468295 47.44011404 -29.77285876 43.05056419 -29.77232933 38.66100883 C-29.77132829 33.49746503 -29.76525138 28.33395158 -29.75516319 23.17041779 C-29.75223059 21.26963296 -29.75101435 19.36884464 -29.75159073 17.46805763 C-29.75207782 14.88483584 -29.74646151 12.30170042 -29.73918152 9.7184906 C-29.74073012 8.95625087 -29.74227872 8.19401113 -29.74387425 7.40867323 C-29.71964734 2.24699109 -29.71964734 2.24699109 -28.60546875 1.1328125 C-19.10887635 -0.21679401 -9.56988396 -0.01264717 0 0 Z " fill="#313235" transform="translate(941.60546875,71.8671875)"/>
<path d="M0 0 C1.45247241 0.00502586 2.90494651 0.00958684 4.35742188 0.01367188 C7.88415015 0.02458958 11.41081402 0.04179414 14.9375 0.0625 C20.29335873 10.55650663 25.33085532 21.15425672 30.16723633 31.8984375 C30.61349365 32.88457031 31.05975098 33.87070313 31.51953125 34.88671875 C31.91374268 35.76416748 32.3079541 36.64161621 32.71411133 37.5456543 C33.98134536 40.15270193 35.43436145 42.58574943 36.9375 45.0625 C37.61850038 46.67307883 38.26503146 48.29870041 38.875 49.9375 C40.06526826 53.02490082 41.30559551 55.82309655 43.0625 58.625 C44.9375 62.0625 44.9375 62.0625 45.60546875 65.83203125 C47.13270411 73.09303293 50.83088378 79.59767889 54.125 86.1875 C55.10734762 88.17409549 56.08689999 90.16205133 57.06617737 92.15016174 C57.71615449 93.46945843 58.36714188 94.78825788 59.01914978 96.10655212 C63.52881948 105.24498505 67.8370957 114.47942778 71.90234375 123.82421875 C73.19582066 126.6210575 74.63659414 129.3309454 76.0625 132.0625 C77.80970403 135.50501091 79.2015163 138.50112552 79.8125 142.3125 C81.01791987 148.97214643 84.70951715 154.84987744 87.7890625 160.80322266 C90.96279967 167.04679488 93.87446483 173.42180747 96.84716797 179.76269531 C97.91062947 182.00582279 98.99957169 184.23458741 100.09765625 186.4609375 C100.43015381 187.14470459 100.76265137 187.82847168 101.10522461 188.53295898 C102.00325435 190.37826008 102.91143087 192.21861339 103.8203125 194.05859375 C104.9370144 197.06119432 105.17390464 198.17045007 103.9375 201.0625 C103.19318726 200.8147583 103.19318726 200.8147583 102.43383789 200.56201172 C98.95168879 199.86524135 95.52817348 200.00033394 91.99609375 200.0703125 C90.42774076 200.08782098 88.85938098 200.10473001 87.29101562 200.12109375 C84.82638763 200.15211394 82.36209897 200.18774157 79.89770508 200.23388672 C77.51379103 200.27616396 75.13027969 200.29964105 72.74609375 200.3203125 C71.63976845 200.34824387 71.63976845 200.34824387 70.51109314 200.3767395 C65.44264373 200.4022022 65.44264373 200.4022022 63.07763672 198.81176758 C61.805889 196.86057435 60.8134341 194.95517564 59.88671875 192.81640625 C59.33745728 191.56802979 59.33745728 191.56802979 58.77709961 190.29443359 C58.39690674 189.41352051 58.01671387 188.53260742 57.625 187.625 C54.58148165 180.69596681 51.4399354 173.8882978 47.93359375 167.1796875 C46.9375 165.0625 46.9375 165.0625 46.9375 163.0625 C12.9475 163.0625 -21.0425 163.0625 -56.0625 163.0625 C-56.7225 165.0425 -57.3825 167.0225 -58.0625 169.0625 C-61.26749877 176.46257677 -64.83908057 183.71498297 -68.2734375 191.01171875 C-68.63977295 191.79011108 -69.0061084 192.56850342 -69.38354492 193.3704834 C-70.27650212 195.26783536 -71.1694971 197.16516954 -72.0625 199.0625 C-77.72215394 199.25457142 -83.38201011 199.43332399 -89.04248047 199.59960938 C-90.96902819 199.65809792 -92.89546799 199.72025936 -94.82177734 199.78613281 C-97.58671419 199.88005244 -100.35176703 199.96086327 -103.1171875 200.0390625 C-104.4141304 200.08735703 -104.4141304 200.08735703 -105.73727417 200.1366272 C-107.84515872 200.18973194 -109.95521418 200.13560184 -112.0625 200.0625 C-112.7225 199.4025 -113.3825 198.7425 -114.0625 198.0625 C-112.32336881 194.29348025 -110.58170021 190.52564572 -108.83789062 186.75878906 C-108.24771079 185.48305326 -107.6581694 184.20702186 -107.06933594 182.93066406 C-104.07633375 176.44412349 -101.0498153 169.98693747 -97.8125 163.6171875 C-95.6244682 159.28018298 -93.79456288 155.01912647 -92.1875 150.4375 C-87.57632677 137.69270798 -81.85066348 125.48905897 -75.7109375 113.41796875 C-73.48973936 108.89661994 -71.54571391 104.27698197 -69.59765625 99.6328125 C-67.98292036 95.87742164 -66.25649022 92.19028431 -64.5 88.5 C-62.38477329 84.04285427 -60.448352 79.57208734 -58.75 74.9375 C-56.26203635 68.28402065 -53.22184558 61.95060384 -50.13964844 55.55834961 C-42.74308761 40.21306356 -35.75695266 24.67316815 -28.79077148 9.12866211 C-28.44473877 8.35659424 -28.09870605 7.58452637 -27.7421875 6.7890625 C-27.28948486 5.77706787 -27.28948486 5.77706787 -26.82763672 4.74462891 C-26.26407693 3.50566051 -25.67121049 2.27992099 -25.0625 1.0625 C-16.79119022 -0.38112048 -8.36869278 -0.05062672 0 0 Z " fill="#313235" transform="translate(795.0625,71.9375)"/>
<path d="M0 0 C0.495 0.99 0.495 0.99 1 2 C1.99 1.67773438 2.98 1.35546875 4 1.0234375 C7.98875666 -0.10564442 11.86790489 -0.38437089 16 -0.375 C16.76401123 -0.37338867 17.52802246 -0.37177734 18.31518555 -0.37011719 C40.02647343 0.07186492 63.81667818 4.86223827 79.8125 20.3125 C92.56060496 33.70631215 92.56060496 33.70631215 93 40 C90.10323529 43.41541401 86.27440167 45.02749231 82.3125 46.9375 C81.62994141 47.27201172 80.94738281 47.60652344 80.24414062 47.95117188 C78.86513186 48.62700337 77.48417945 49.29888327 76.10131836 49.96679688 C74.65497529 50.67795336 73.21864448 51.40972152 71.79125977 52.15820312 C71.08412842 52.52751953 70.37699707 52.89683594 69.6484375 53.27734375 C69.01212402 53.61628662 68.37581055 53.95522949 67.72021484 54.30444336 C66 55 66 55 63.3125 54.625 C61 53 61 53 59 50.375 C51.10693307 40.43558238 38.10707261 36.45770774 26 35 C12.66749874 33.81111454 -3.19884212 33.91974155 -14.6875 41.75 C-16.46553068 43.28877289 -16.46553068 43.28877289 -18 45 C-18.52207031 45.56332031 -19.04414062 46.12664062 -19.58203125 46.70703125 C-24.04913465 52.55241449 -23.65495456 58.92649071 -23 66 C-22.76596191 68.26052231 -22.76596191 68.26052231 -22 70 C-21.01 70.33 -20.02 70.66 -19 71 C-19 71.66 -19 72.32 -19 73 C-5.33612722 78.51566152 7.4635927 82.145537 22.0625 84.125 C52.70318613 88.4058879 52.70318613 88.4058879 66.5 94.875 C67.25772705 95.22232178 68.0154541 95.56964355 68.79614258 95.92749023 C74.03488418 98.39227987 78.73961827 101.03271579 83 105 C83.59683594 105.51949219 84.19367188 106.03898437 84.80859375 106.57421875 C92.29541728 113.48141723 98.75352615 123.64980663 99.43579102 134.02246094 C99.47521557 135.4260623 99.49729011 136.83023565 99.50390625 138.234375 C99.51389145 138.99365295 99.52387665 139.75293091 99.53416443 140.53521729 C99.54924973 142.13182181 99.55639322 143.72851959 99.5559082 145.32519531 C99.56244959 147.73145518 99.61696391 150.13353408 99.67382812 152.5390625 C99.82827964 166.6737497 95.3235392 176.33017388 86 187 C85.46375 187.65355469 84.9275 188.30710938 84.375 188.98046875 C73.83402369 200.7684802 59.03800441 206.68135883 43.75 208.5625 C41.76522177 208.81059728 39.78082188 209.0617464 37.796875 209.31640625 C36.92385742 209.42412354 36.05083984 209.53184082 35.15136719 209.64282227 C32.95745122 209.89848945 32.95745122 209.89848945 31 211 C26.27702286 211.27745126 21.54283702 211.24337615 16.8125 211.25 C16.12838043 211.25200409 15.44426086 211.25400818 14.7394104 211.256073 C5.84323087 211.26249283 -2.50326738 210.90527795 -11.1640625 208.71484375 C-13.73794084 208.06605623 -16.04789054 207.7778195 -18.6875 207.625 C-35.65956566 205.8867065 -51.09126551 192.16484673 -61.80078125 179.9453125 C-65.5622649 175.29712675 -68.79333237 169.91267137 -70 164 C-68.78226949 160.73271458 -67.51826497 159.38207279 -64.4375 157.81640625 C-63.37233154 157.26412354 -63.37233154 157.26412354 -62.28564453 156.70068359 C-61.53138184 156.32508301 -60.77711914 155.94948242 -60 155.5625 C-59.23413574 155.17143066 -58.46827148 154.78036133 -57.67919922 154.37744141 C-56.15410073 153.60023704 -54.6266308 152.82766632 -53.09667969 152.06005859 C-51.30464543 151.15402544 -49.52932979 150.21505192 -47.7578125 149.26953125 C-46.88898438 148.80933594 -46.02015625 148.34914062 -45.125 147.875 C-44.38507813 147.48054687 -43.64515625 147.08609375 -42.8828125 146.6796875 C-41 146 -41 146 -38 147 C-36.00603743 149.66083969 -34 152.61242325 -34 156 C-33.443125 156.226875 -32.88625 156.45375 -32.3125 156.6875 C-29.35437977 158.3664331 -27.41016417 160.58983583 -25 163 C-19.3550877 168.00669609 -14.34653675 171.25134829 -7 173 C-5.93265625 173.27714844 -4.8653125 173.55429688 -3.765625 173.83984375 C12.31437212 177.58379158 27.28481525 176.92109785 43 172 C44.05316406 171.69191406 45.10632812 171.38382813 46.19140625 171.06640625 C53.25718663 168.3835717 57.85506163 162.66726934 61 156 C62.79721088 151.20743765 62.44753097 146.36745573 60.875 141.5625 C60.28352788 140.35794947 59.65574896 139.17080082 59 138 C58.63261719 137.33742187 58.26523438 136.67484375 57.88671875 135.9921875 C52.19794305 127.16535559 42.78604127 124.11971658 32.9375 121.875 C24.01102691 119.96738503 14.96102965 118.83412722 5.92651367 117.57202148 C-5.99445073 115.83645068 -16.94163896 112.79284897 -28 108 C-29.423125 107.5978125 -29.423125 107.5978125 -30.875 107.1875 C-35.40792883 105.46498704 -39.06727679 102.80165902 -43 100 C-43.76957031 99.49597656 -44.53914063 98.99195313 -45.33203125 98.47265625 C-54.73686339 91.91971529 -59.57761944 82.00999287 -62 71 C-62.38234664 67.52762128 -62.4315305 64.1156779 -62.375 60.625 C-62.36412354 59.7067041 -62.35324707 58.7884082 -62.34204102 57.84228516 C-61.96266273 41.63352702 -56.39463994 30.5316466 -44.69140625 19.29296875 C-40.43482513 15.66653462 -35.82857333 12.79627058 -31 10 C-29.77990234 9.21109375 -29.77990234 9.21109375 -28.53515625 8.40625 C-25.77526352 6.87533878 -23.31992637 6.1481311 -20.25 5.4375 C-18.67798828 5.07011719 -18.67798828 5.07011719 -17.07421875 4.6953125 C-16.05972656 4.46585937 -15.04523438 4.23640625 -14 4 C-12.71029297 3.68675781 -12.71029297 3.68675781 -11.39453125 3.3671875 C-7.52465358 2.44671408 -4.0092939 1.74133588 0 2 C0 1.34 0 0.68 0 0 Z " fill="#323336" transform="translate(1173,66)"/>
<path d="M0 0 C0.495 0.99 0.495 0.99 1 2 C1.56879883 1.67620361 2.13759766 1.35240723 2.72363281 1.01879883 C6.59768934 -0.71505337 10.5631625 -0.33781836 14.75 -0.3125 C15.69012939 -0.30831055 16.63025879 -0.30412109 17.59887695 -0.29980469 C25.30106993 -0.17678946 32.43870676 0.78577982 39.95507812 2.53808594 C42.1865347 3.04213511 44.42563726 3.48082009 46.671875 3.9140625 C54.78523524 5.51866618 62.21009308 7.01985427 69 12 C69.82757813 12.59941406 70.65515625 13.19882813 71.5078125 13.81640625 C80.18823884 20.43685082 87.47433707 28.54423031 93 38 C93 38.99 93 39.98 93 41 C92.47535156 41.25652344 91.95070313 41.51304688 91.41015625 41.77734375 C90.24806641 42.35162109 90.24806641 42.35162109 89.0625 42.9375 C88.16144531 43.3809375 87.26039063 43.824375 86.33203125 44.28125 C83.76630633 45.60471889 81.26604168 46.97425239 78.76171875 48.40625 C78.01849365 48.82269775 77.27526855 49.23914551 76.50952148 49.66821289 C75.01932706 50.50533021 73.53798603 51.35843457 72.06665039 52.22827148 C68.45245654 54.23597141 66.81562121 55.13892969 62.62890625 54.42578125 C59.8133722 52.89878284 58.38737604 51.15520245 56.44921875 48.6484375 C50.29270556 41.64561117 41.69894842 39.32818571 33 37 C31.91589844 36.64292969 30.83179688 36.28585938 29.71484375 35.91796875 C18.5088096 33.14886462 6.03247402 34.17974461 -5 37.25 C-5.73452393 37.45439697 -6.46904785 37.65879395 -7.22583008 37.86938477 C-14.32804414 40.06893556 -18.3549032 43.58965735 -22 50 C-24.41544323 56.09611864 -24.62160738 62.11776199 -22.078125 68.20703125 C-21.11983113 70.16344478 -21.11983113 70.16344478 -19 71 C-19 71.66 -19 72.32 -19 73 C-5.4160444 78.47903042 7.55371747 81.8244636 22.0234375 84.1171875 C74.74310073 92.51362686 74.74310073 92.51362686 90.27734375 113.00390625 C99.72742534 127.20466176 101.34163676 144.87628957 98.57446289 161.56665039 C94.93686239 178.29551207 85.42534692 190.17411707 71.125 199.375 C65.18091303 203.09074361 60.02956354 205.25081749 53 206 C52.67 206.33 52.34 206.66 52 207 C39.44670211 210.39020735 27.18431262 211.37949879 14.25 211.3125 C13.19990753 211.30840622 13.19990753 211.30840622 12.12860107 211.30422974 C0.23004486 211.23004486 0.23004486 211.23004486 -1 210 C-2.48965786 209.76261327 -3.98815198 209.58013166 -5.48828125 209.421875 C-27.57716173 206.89918415 -46.7343855 198.78661889 -61.33203125 181.20703125 C-70.1355566 169.55833846 -70.1355566 169.55833846 -71 162 C-61.20449282 155.5952453 -50.67522532 150.74921442 -40 146 C-39.38125 146.94359375 -39.38125 146.94359375 -38.75 147.90625 C-30.08044973 160.75576201 -19.53847836 170.64160742 -4 174 C-3.12214844 174.20367187 -2.24429688 174.40734375 -1.33984375 174.6171875 C13.63429037 177.62437262 27.51345072 176.37024392 42 172 C43.34384766 171.69449219 43.34384766 171.69449219 44.71484375 171.3828125 C51.34921358 169.72705524 55.10728203 165.48158244 59 160 C61.14572446 153.56282661 61.25111589 145.68011876 60 139 C56.3493847 132.086957 50.28697419 127.537454 43 125 C32.95190898 121.96187211 22.92864657 120.03651521 12.5647583 118.47589111 C0.16628404 116.59642299 -11.71086909 114.44450432 -23.5234375 110.1015625 C-26.91478314 108.83008561 -26.91478314 108.83008561 -30.2890625 109.0234375 C-33 109 -33 109 -34.48046875 107.796875 C-34.98191406 107.20390625 -35.48335938 106.6109375 -36 106 C-37.52164995 104.83793889 -39.04463704 103.67744224 -40.58227539 102.53662109 C-48.7680866 96.44952852 -55.12305382 90.64928826 -59 81 C-59.30035156 80.2575 -59.60070312 79.515 -59.91015625 78.75 C-64.33571318 65.57624913 -63.65044995 48.6223761 -58 36 C-50.07600365 21.94283047 -38.18911904 10.90798622 -22.5 6.125 C-21.00480815 5.73126615 -19.50499163 5.35443644 -18 5 C-17.39671875 4.83371094 -16.7934375 4.66742188 -16.171875 4.49609375 C-13.05591179 3.78435395 -9.91503588 3.37708832 -6.75 2.9375 C-5.48671875 2.76089844 -4.2234375 2.58429688 -2.921875 2.40234375 C-1.95765625 2.26957031 -0.9934375 2.13679688 0 2 C0 1.34 0 0.68 0 0 Z " fill="#323336" transform="translate(407,66)"/>
<path d="M0 0 C1.27166016 -0.00257812 2.54332031 -0.00515625 3.85351562 -0.0078125 C4.51601318 -0.00362305 5.17851074 0.00056641 5.86108398 0.00488281 C7.86895409 0.01553079 9.87690179 0.00395807 11.88476562 -0.0078125 C13.16029297 -0.00523438 14.43582031 -0.00265625 15.75 0 C16.91442627 0.00225586 18.07885254 0.00451172 19.27856445 0.00683594 C22.70348943 0.27577589 25.41150446 0.93574421 28.57421875 2.265625 C29.98620859 5.08960468 29.71523903 7.45877845 29.73243713 10.61831665 C29.7398441 11.60705782 29.7398441 11.60705782 29.7474007 12.61577356 C29.76281415 14.83450398 29.77114668 17.05320538 29.77954102 19.27197266 C29.78911652 20.858457 29.79912641 22.44493878 29.80953979 24.03141785 C29.83663043 28.34726108 29.85761743 32.66311529 29.87754178 36.97899675 C29.89937573 41.48604883 29.92677707 45.99306689 29.95359802 50.50009155 C30.00356002 59.03879608 30.04848581 67.57751944 30.09162039 76.11626089 C30.14096283 85.83561273 30.19589204 95.55493045 30.25129998 105.27424932 C30.36517384 125.27134277 30.47200109 145.26846879 30.57421875 165.265625 C31.81227768 165.26340439 33.05033661 165.26118378 34.32591248 165.25889587 C45.96607097 165.23866646 57.60622592 165.22365383 69.24639797 165.21381283 C75.23141141 165.20858349 81.21641071 165.20148492 87.20141602 165.19018555 C92.97205304 165.17935847 98.74267643 165.17334855 104.51332283 165.17074776 C106.72024818 165.16889318 108.92717275 165.16527196 111.13409233 165.15989494 C114.21367916 165.1526869 117.29320889 165.15163396 120.37280273 165.15209961 C121.29493057 165.14850433 122.21705841 165.14490906 123.16712952 165.14120483 C129.46016659 165.15157284 129.46016659 165.15157284 130.57421875 166.265625 C130.66269618 168.78656576 130.68949176 171.27993393 130.671875 173.80078125 C130.66975258 174.93065712 130.66975258 174.93065712 130.66758728 176.08335876 C130.66197251 178.4983206 130.64941758 180.91319101 130.63671875 183.328125 C130.63170565 184.96158721 130.62714241 186.59505086 130.62304688 188.22851562 C130.61199829 192.24092085 130.59472381 196.25325741 130.57421875 200.265625 C112.59848281 200.15852526 94.62279156 200.04578928 76.64713383 199.92628574 C68.30131005 199.87093446 59.955482 199.81744939 51.60961914 199.76831055 C44.33800422 199.72549198 37.06642102 199.67921997 29.79485506 199.62874645 C25.94224217 199.60212668 22.08963566 199.57727323 18.23698616 199.55655098 C14.6148612 199.5370142 10.99279673 199.51287951 7.37072563 199.48513412 C5.3992707 199.47125394 3.4277829 199.46232427 1.45629883 199.45350647 C-0.28749306 199.43882324 -0.28749306 199.43882324 -2.06651306 199.42384338 C-3.08325072 199.41739083 -4.09998838 199.41093828 -5.14753628 199.4042902 C-7.42578125 199.265625 -7.42578125 199.265625 -8.42578125 198.265625 C-8.54256348 195.7413093 -8.5941144 193.24349812 -8.60418701 190.71791077 C-8.61124169 189.91809121 -8.61829636 189.11827165 -8.62556481 188.29421514 C-8.64808551 185.59337458 -8.66339043 182.89254073 -8.67871094 180.19165039 C-8.69319079 178.26373505 -8.70806711 176.33582265 -8.72331238 174.40791321 C-8.7633018 169.15596612 -8.79659222 163.90399742 -8.82789898 158.65199208 C-8.84758602 155.37497221 -8.86843867 152.09796176 -8.88965607 148.82095146 C-8.95565409 138.58008245 -9.01763459 128.33920089 -9.07383513 118.09827334 C-9.13886282 106.25379268 -9.21699016 94.40949447 -9.30651736 82.56517416 C-9.37483252 73.42469804 -9.43166549 64.28419599 -9.47968411 55.14359087 C-9.50865248 49.67728516 -9.54256111 44.21111371 -9.58834076 38.74492073 C-9.63105344 33.60603276 -9.65958247 28.46726398 -9.67699623 23.3282299 C-9.68587935 21.43750725 -9.69995405 19.54680114 -9.71948051 17.65615845 C-9.74526267 15.08405139 -9.75269505 12.51254212 -9.75531006 9.94032288 C-9.76725741 9.18420481 -9.77920476 8.42808675 -9.79151416 7.64905602 C-9.78210068 5.56993198 -9.78210068 5.56993198 -9.42578125 2.265625 C-5.85171091 -0.11708856 -4.24232633 0.00824267 0 0 Z " fill="#313235" transform="translate(544.42578125,71.734375)"/>
<path d="M0 0 C0.99 0.7734375 0.99 0.7734375 2 1.5625 C2 2.2225 2 2.8825 2 3.5625 C2.66 3.5625 3.32 3.5625 4 3.5625 C6.88815922 7.354533 7.4319519 10.28965891 7.4375 15 C7.45683594 16.09183594 7.47617187 17.18367188 7.49609375 18.30859375 C6.24373528 26.52288195 -1.29678829 32.12995454 -6.92163086 37.71118164 C-7.93915566 38.72814165 -8.95623898 39.74554354 -9.97291565 40.76335144 C-12.72466552 43.51567354 -15.48252594 46.26179735 -18.24154353 49.00683141 C-21.13358271 51.88632542 -24.01991854 54.77152502 -26.90687561 57.65611267 C-32.37563403 63.11866128 -37.84946675 68.57609546 -43.32515675 74.03169483 C-49.54001266 80.22423596 -55.7492303 86.4224172 -61.95795619 92.62110341 C-72.57503947 103.22082603 -83.19627641 113.81637126 -93.82235718 124.40707397 C-94.69852188 125.28034836 -95.57468658 126.15362274 -96.47740173 127.05335999 C-97.23452926 127.80788987 -97.99165678 128.56241976 -98.77172756 129.33981419 C-102.58029015 133.13882812 -106.38205534 136.9444089 -110.17292786 140.76107788 C-112.31967149 142.92140064 -114.46925345 145.07889088 -116.61889648 147.23632812 C-117.74350194 148.3659592 -118.86720782 149.4964866 -119.98999023 150.62792969 C-125.62143815 156.30150814 -131.23891618 161.88665917 -137.32543945 167.07714844 C-139.91759508 169.3764158 -142.14520283 171.90066759 -144.4375 174.5 C-148.42565555 178.96285286 -152.58879126 182.9921658 -157.14453125 186.88671875 C-159.17506981 188.62100292 -159.17506981 188.62100292 -161.125 191.3125 C-164.3815007 195.22030084 -167.66356056 197.18587991 -172.6171875 197.984375 C-179.26759689 198.31597436 -183.99936804 197.04419845 -189 192.5625 C-191.55934072 189.68474365 -192.47766304 187.57286317 -192.875 183.75 C-192.97554688 182.93917969 -193.07609375 182.12835938 -193.1796875 181.29296875 C-192.68596486 173.79053131 -188.28726157 169.27073141 -183.20124817 164.24908447 C-182.50604197 163.54693274 -181.81083577 162.84478101 -181.09456271 162.12135196 C-178.76883606 159.77736855 -176.42911127 157.44789205 -174.08911133 155.11816406 C-172.41611762 153.4381113 -170.74396846 151.75721719 -169.07260132 150.07554626 C-164.53431248 145.51475312 -159.98338209 140.96677538 -155.42939591 136.42166233 C-152.58442849 133.58153673 -149.7435428 130.73735356 -146.90375328 127.8920517 C-146.43188276 127.41927952 -145.96001224 126.94650735 -145.47384262 126.45940875 C-144.51516043 125.4988753 -143.55648391 124.53833621 -142.59781297 123.57779154 C-133.61359963 114.57701068 -124.61679211 105.58890251 -115.6158705 96.60483465 C-107.38709987 88.39076018 -99.17308283 80.16211486 -90.96609107 71.92628506 C-82.53206553 63.46284554 -74.08884838 55.00868191 -65.63533229 46.56470847 C-64.67864937 45.60904808 -63.72198041 44.65337372 -62.76532555 43.69768524 C-62.29467335 43.22750944 -61.82402116 42.75733363 -61.33910677 42.27291007 C-58.02881752 38.9647823 -54.72469595 35.65059019 -51.42264748 32.33423615 C-46.97445457 27.8676966 -42.51428965 23.41346886 -38.04462814 18.96841621 C-36.40687765 17.33567652 -34.77336935 15.69866878 -33.14446449 14.05710411 C-30.91891088 11.81562762 -28.67848548 9.59014284 -26.43367004 7.36798096 C-25.47366544 6.39022276 -25.47366544 6.39022276 -24.49426681 5.39271188 C-17.31608392 -1.63923193 -9.54030246 -4.57139493 0 0 Z " fill="#2E96D2" transform="translate(279,117.4375)"/>
<path d="M0 0 C3.68745686 2.51417513 6.963089 5.4039992 8.36328125 9.80078125 C8.76036303 11.93058353 9.02376145 13.96005255 9.125 16.125 C9.17398438 16.83140625 9.22296875 17.5378125 9.2734375 18.265625 C7.42153989 27.49747279 -1.19740218 34.24166181 -7.59863281 40.59594727 C-8.75779542 41.75754132 -9.91631185 42.9197805 -11.07423401 44.08261108 C-14.20599525 47.22373804 -17.34703409 50.35543017 -20.49014759 53.48519254 C-23.78858308 56.77226283 -27.07925127 60.06709325 -30.37103271 63.36082458 C-35.90052484 68.89119827 -41.43595132 74.41557615 -46.97509766 79.9362793 C-53.36329967 86.30333159 -59.74264689 92.67914859 -66.11716008 99.05990368 C-72.26710742 105.21556285 -78.42273806 111.36550725 -84.58113861 117.51270866 C-87.19348513 120.12043164 -89.80396321 122.73000367 -92.41294098 125.34109688 C-95.49126333 128.4213148 -98.57459487 131.496433 -101.661726 134.5678215 C-102.78845905 135.69034268 -103.9135421 136.8145231 -105.03676796 137.94055367 C-121.03515193 153.97279386 -121.03515193 153.97279386 -127.4375 155.76953125 C-134.76736362 155.55574356 -139.94422742 154.13433256 -145.25 148.875 C-148.65048676 143.47422691 -148.5092842 139.88081696 -147.25 133.875 C-145.95608579 129.88317047 -144.29688956 127.57091642 -141.29296875 124.66015625 C-140.50986328 123.89123047 -139.72675781 123.12230469 -138.91992188 122.33007812 C-138.10072266 121.54052734 -137.28152344 120.75097656 -136.4375 119.9375 C-130.28906443 114.09002202 -130.28906443 114.09002202 -124.67578125 107.74609375 C-122.73463812 105.4486055 -120.97162988 103.71213382 -118.69998169 101.79302979 C-113.7752854 97.52673097 -109.20771376 92.94293645 -104.62451172 88.31542969 C-103.20030557 86.88405111 -101.77609739 85.45267455 -100.3518126 84.02137423 C-98.836538 82.49775071 -97.32249525 80.97291224 -95.80874252 79.44777679 C-92.64286544 76.25865607 -89.47195543 73.07457126 -86.30007935 69.89141846 C-77.28665945 60.84470795 -68.27755735 51.79372744 -59.27880859 42.73242188 C-54.29689228 37.71595735 -49.30961365 32.70488933 -44.31633198 27.69973683 C-41.16415933 24.53948604 -38.01865685 21.37279083 -34.87794852 18.20114851 C-32.46361585 15.76701361 -30.03942147 13.34277627 -27.61669922 10.91699219 C-26.75316833 10.04110443 -25.88963745 9.16521667 -24.99993896 8.26278687 C-17.42165699 0.70974085 -10.72362016 -3.71202236 0 0 Z " fill="#2BAC63" transform="translate(195.25,33.125)"/>
<path d="M0 0 C4.07218267 3.69337498 5.68570933 7.83284425 7.625 12.875 C7.77150411 18.88166837 6.03197106 22.88042433 2.09375 27.44140625 C-2.80875698 32.50367391 -8.07506669 37.13674725 -13.4296875 41.7109375 C-15.48355836 43.59436265 -17.28832762 45.5915327 -19.125 47.6875 C-23.89596706 53.1040988 -28.9629489 58.20571959 -34.0625 63.3125 C-34.89112549 64.14555664 -35.71975098 64.97861328 -36.57348633 65.83691406 C-37.36907959 66.6306543 -38.16467285 67.42439453 -38.984375 68.2421875 C-39.6969043 68.95358887 -40.40943359 69.66499023 -41.14355469 70.39794922 C-43.3125 72.4375 -43.3125 72.4375 -45.64550781 74.19970703 C-48.57000363 76.65356356 -50.89153563 79.33381396 -53.36856079 82.22689819 C-56.86535866 86.20337424 -60.639015 89.9062584 -64.38671875 93.64453125 C-65.23297318 94.4917424 -66.0792276 95.33895355 -66.9511261 96.21183777 C-68.72733838 97.98872645 -70.50479767 99.76436941 -72.28344727 101.53881836 C-75.00587919 104.25586756 -77.72289906 106.97824725 -80.43945312 109.70117188 C-82.17155423 111.43261262 -83.90396526 113.16374338 -85.63671875 114.89453125 C-86.44719162 115.70702835 -87.25766449 116.51952545 -88.09269714 117.35664368 C-88.8506105 118.11140488 -89.60852386 118.86616608 -90.3894043 119.64379883 C-91.05223923 120.30583817 -91.71507416 120.9678775 -92.397995 121.64997864 C-97.49094219 126.40512521 -101.34842224 127.60971831 -108.3125 127.4375 C-113.57609572 125.85842128 -117.59631114 123.49938084 -121.3125 119.4375 C-123.17733433 114.24504845 -123.62540207 109.80410699 -122.3125 104.4375 C-121.6525 104.4375 -120.9925 104.4375 -120.3125 104.4375 C-120.3125 103.4475 -120.3125 102.4575 -120.3125 101.4375 C-119.3331121 100.41730427 -118.33354551 99.41600195 -117.3125 98.4375 C-117.3125 97.7775 -117.3125 97.1175 -117.3125 96.4375 C-116.04370117 95.18994141 -116.04370117 95.18994141 -114.16796875 93.6640625 C-107.62061816 88.09571457 -101.67647044 81.90692316 -95.625 75.8125 C-94.40323054 74.58570268 -93.18122695 73.35913847 -91.95898438 72.1328125 C-89.71510376 69.88083014 -87.47258256 67.62751363 -85.23168945 65.37255859 C-82.59733842 62.7221446 -79.95489511 60.07989511 -77.3125 57.4375 C-75.61542816 55.72962091 -73.91883235 54.0212687 -72.22265625 52.3125 C-70.77065531 50.85312516 -69.31817299 49.39423134 -67.86547852 47.93554688 C-66.87271642 46.93774372 -65.88085201 45.9390466 -64.88989258 44.93945312 C-55.55909502 35.52982988 -55.55909502 35.52982988 -51.70703125 32.3984375 C-49.2170835 30.59412558 -49.2170835 30.59412558 -47.9375 28.0625 C-45.93109378 24.82138226 -43.4631533 22.84173428 -40.56640625 20.3984375 C-35.64850826 16.11978101 -31.17847932 11.34687419 -26.625 6.6875 C-18.35617975 -1.35783862 -10.980738 -5.1795934 0 0 Z " fill="#E64C3F" transform="translate(248.3125,66.5625)"/>
<path d="M0 0 C1.82890778 -0.01925285 1.82890778 -0.01925285 3.69476318 -0.03889465 C5.04031974 -0.04707027 6.38588093 -0.05451242 7.73144531 -0.0612793 C8.74830791 -0.06739259 8.74830791 -0.06739259 9.7857132 -0.07362938 C13.38627317 -0.09453714 16.98679471 -0.10880819 20.58740234 -0.11816406 C24.27559188 -0.12913034 27.9631615 -0.16339979 31.65113449 -0.20333576 C34.50997886 -0.22975238 37.36868263 -0.23787864 40.22763824 -0.24144554 C42.23751999 -0.24857903 44.24730472 -0.27492948 46.25701904 -0.30183411 C57.70444459 -0.27519321 69.19215583 1.7662956 78.30957031 9.17700195 C81.03168139 12.03870847 82.7257108 14.23595028 83.30957031 18.17700195 C83.96957031 18.17700195 84.62957031 18.17700195 85.30957031 18.17700195 C87.46464217 23.56468159 88.412584 28.66320985 86.65722656 34.25512695 C83.41194374 41.55353125 77.63519315 46.18695182 70.30957031 49.17700195 C62.62634 51.70653456 54.94001732 51.44997795 46.94238281 51.4074707 C45.45645182 51.40627683 43.97052007 51.40582618 42.48458862 51.40608215 C39.38648688 51.4045256 36.28850205 51.39629519 33.19042969 51.3828125 C29.21574872 51.36573447 25.24119477 51.36200116 21.2664814 51.36275768 C18.20564559 51.36248627 15.14483764 51.35701117 12.08401108 51.34975624 C10.61755458 51.34657231 9.15109493 51.34460281 7.68463516 51.34386253 C5.64309809 51.34170113 3.6015728 51.33216709 1.56005859 51.32226562 C0.39838165 51.31845383 -0.76329529 51.31464203 -1.96017456 51.31071472 C-4.69042969 51.17700195 -4.69042969 51.17700195 -6.69042969 50.17700195 C-6.71569807 43.21696748 -6.73326191 36.25694475 -6.74536133 29.296875 C-6.7504031 26.92707884 -6.75723634 24.5572858 -6.76586914 22.1875 C-6.77794159 18.78946157 -6.7836594 15.3914641 -6.78808594 11.9934082 C-6.79324722 10.9267543 -6.79840851 9.8601004 -6.8037262 8.76112366 C-6.80380173 7.78018234 -6.80387726 6.79924103 -6.80395508 5.78857422 C-6.80617569 4.92031509 -6.8083963 4.05205597 -6.8106842 3.15748596 C-6.55732985 -1.01503295 -3.51577189 0.03211298 0 0 Z " fill="#F9FBFB" transform="translate(956.6904296875,185.822998046875)"/>
<path d="M0 0 C8.43292158 0.03820721 16.86531733 0.09778448 25.29787254 0.18390274 C29.21438535 0.22324488 33.13067779 0.25549768 37.04736328 0.27099609 C40.83427321 0.28625106 44.62057676 0.32085008 48.40721512 0.36830902 C49.844679 0.38303252 51.28222949 0.39103578 52.71976852 0.39188385 C62.36869944 0.40329069 70.94328829 0.97761568 78.75 7.1875 C88.43399453 19.29249316 88.43399453 19.29249316 88.35546875 27.8046875 C87.52370946 32.94148664 83.89166909 37.65763348 80 41 C77.73046875 42.1328125 77.73046875 42.1328125 75.1875 43.125 C73.94033203 43.62386719 73.94033203 43.62386719 72.66796875 44.1328125 C67.66391692 45.75931251 62.80561186 46.12710902 57.56738281 46.14526367 C56.31298401 46.15164352 55.05858521 46.15802338 53.76617432 46.16459656 C52.41182494 46.16612453 51.05747504 46.16723886 49.703125 46.16796875 C48.30401577 46.17118468 46.90490687 46.174549 45.50579834 46.17805481 C42.5840985 46.18402237 39.66242816 46.18589689 36.74072266 46.18530273 C32.99238103 46.18520062 29.24422676 46.19891332 25.49592972 46.21607494 C22.61180749 46.22716955 19.72773117 46.22922282 16.84358978 46.22869301 C15.46085711 46.22987463 14.07812331 46.23430662 12.69541168 46.24202538 C10.7686455 46.25178414 8.84182405 46.24769368 6.91503906 46.24291992 C5.81838928 46.24434494 4.7217395 46.24576996 3.59185791 46.24723816 C1 46 1 46 -1 44 C-1.24723816 42.1784668 -1.24723816 42.1784668 -1.24291992 39.94921875 C-1.24599655 39.11495361 -1.24907318 38.28068848 -1.25224304 37.42114258 C-1.24505753 36.51904053 -1.23787201 35.61693848 -1.23046875 34.6875 C-1.23001053 33.76283936 -1.22955231 32.83817871 -1.2290802 31.88549805 C-1.22605625 29.92853514 -1.21816569 27.97157468 -1.20581055 26.01464844 C-1.18757461 23.01228344 -1.18530069 20.01022705 -1.18554688 17.0078125 C-1.18063097 15.10937232 -1.17480234 13.21093424 -1.16796875 11.3125 C-1.16685593 10.41039795 -1.1657431 9.5082959 -1.16459656 8.57885742 C-1.15821671 7.74459229 -1.15183685 6.91032715 -1.14526367 6.05078125 C-1.14145187 5.31512939 -1.13764008 4.57947754 -1.13371277 3.8215332 C-1 2 -1 2 0 0 Z " fill="#FAFCFC" transform="translate(951,107)"/>
<path d="M0 0 C4.69682246 2.97700096 7.40443528 6.85887192 9.01171875 12.15625 C10.08194572 18.56657853 8.7694671 22.86337176 5.01171875 28.15625 C1.57081764 32.02716223 -2.09536001 35.66196653 -5.7734375 39.3046875 C-6.83721697 40.36794762 -7.90047672 41.43172794 -8.96324158 42.4960022 C-11.18182643 44.71449774 -13.40545071 46.9277706 -15.63305664 49.13720703 C-18.4886765 51.97004405 -21.3329857 54.81392673 -24.17386723 57.66153526 C-26.36362206 59.85462806 -28.55832722 62.04270999 -30.75466728 64.22920609 C-31.80578082 65.27647164 -32.85555068 66.3250876 -33.90394783 67.37507248 C-35.36607333 68.83756831 -36.83451661 70.29340372 -38.30493164 71.74755859 C-39.55591393 72.99162979 -39.55591393 72.99162979 -40.83216858 74.26083374 C-42.98828125 76.15625 -42.98828125 76.15625 -45.98828125 77.15625 C-46.42785156 77.6615625 -46.86742188 78.166875 -47.3203125 78.6875 C-50.36172737 81.36565455 -54.03499822 80.67254109 -57.90234375 80.57421875 C-62.48755202 79.95318421 -65.60380475 78.26860778 -68.98828125 75.15625 C-72.30240035 70.77306022 -73.13035986 66.81759527 -73.05078125 61.40625 C-73.04175781 60.60703125 -73.03273438 59.8078125 -73.0234375 58.984375 C-73.01183594 58.38109375 -73.00023438 57.7778125 -72.98828125 57.15625 C-72.32828125 57.15625 -71.66828125 57.15625 -70.98828125 57.15625 C-70.7572319 56.60119278 -70.52618256 56.04613556 -70.28813171 55.47425842 C-68.63462632 52.52558121 -66.57214799 50.47020987 -64.19067383 48.06811523 C-63.70419373 47.57491791 -63.21771362 47.08172058 -62.7164917 46.57357788 C-61.11054306 44.94867011 -59.49719098 43.33137381 -57.8828125 41.71484375 C-56.75886034 40.58446156 -55.63505784 39.45393054 -54.51139832 38.32325745 C-52.15528144 35.95517253 -49.79507375 33.59125151 -47.43237305 31.22973633 C-44.41389238 28.21145866 -41.40939192 25.17967251 -38.40829945 22.14411831 C-36.09107593 19.80459334 -33.76475344 17.47428021 -31.43582726 15.14640999 C-30.3246927 14.03292374 -29.21678016 12.91621216 -28.11225319 11.79617119 C-26.56185387 10.22604942 -24.99913479 8.66925611 -23.43286133 7.11499023 C-22.10621208 5.78406593 -22.10621208 5.78406593 -20.75276184 4.42625427 C-14.88543703 -0.39159557 -7.33343282 -3.1120265 0 0 Z " fill="#F19C19" transform="translate(72.98828125,71.84375)"/>
<path d="M0 0 C1.11246094 -0.00773438 2.22492188 -0.01546875 3.37109375 -0.0234375 C7.72383445 0.51998912 10.315327 1.89686904 13.14453125 5.25 C16.59341117 11.20616087 17.97216325 16.529513 16.5625 23.375 C13.98678649 28.72311787 9.59065786 32.37800671 5.109375 36.12109375 C-0.44544782 41.03694155 -5.56741853 46.43328261 -10.7824707 51.70458984 C-12.12861867 53.06324811 -13.48131549 54.41541544 -14.8359375 55.765625 C-17.12413898 58.06069796 -19.3899016 60.37492224 -21.65234375 62.6953125 C-23.22637918 64.29705517 -24.80060269 65.89861303 -26.375 67.5 C-27.55352539 68.71623047 -27.55352539 68.71623047 -28.75585938 69.95703125 C-33.81711968 75.08182202 -37.80835619 78.89111416 -45.1875 79.875 C-51.06668693 79.61495904 -56.86231835 77.03602104 -60.9609375 72.80078125 C-63.48956308 68.95404234 -63.90332894 65.14040333 -63.96875 60.68359375 C-62.70883119 55.20850541 -58.41406416 51.10216063 -54.54882812 47.2434082 C-53.84070229 46.53243484 -53.84070229 46.53243484 -53.11827087 45.80709839 C-51.5732571 44.25841225 -50.02121888 42.71699101 -48.46875 41.17578125 C-47.38509203 40.09331707 -46.30180531 39.0104811 -45.21887207 37.92729187 C-42.95580039 35.66577887 -40.68942606 33.40764832 -38.42041016 31.15209961 C-35.51682765 28.26553645 -32.61990159 25.3724041 -29.72519684 22.47694111 C-27.49154887 20.2435654 -25.25530165 18.01280787 -23.01817322 15.78291893 C-21.949098 14.71701762 -20.88062009 13.65051688 -19.8127594 12.58339882 C-18.3197235 11.09253833 -16.8234363 9.60502043 -15.32617188 8.1184082 C-14.4766394 7.27268753 -13.62710693 6.42696686 -12.75183105 5.55561829 C-8.3551731 1.4129816 -6.16590042 -0.04276925 0 0 Z " fill="#BE392B" transform="translate(97.4375,204.625)"/>
<path d="M0 0 C0.66 0 1.32 0 2 0 C2.34611328 1.01707031 2.34611328 1.01707031 2.69921875 2.0546875 C4.32519671 6.69483013 5.99585711 11.15821234 8.3125 15.5 C10.7839021 20.25385909 12.57580435 25.15303066 14.375 30.1875 C17.19337491 38.04087186 20.44003379 45.49432917 24.06005859 53.0078125 C26.21490546 57.57496846 28.21857764 62.21220972 30.24780273 66.83618164 C31.66804406 70.05885548 33.11004855 73.21191781 34.734375 76.33984375 C36 79 36 79 36 82 C12.9 82 -10.2 82 -34 82 C-34 76.97632012 -32.968896 74.20161504 -30.8125 69.875 C-30.16757884 68.53794842 -29.52305036 67.20070736 -28.87890625 65.86328125 C-28.55937988 65.2079541 -28.23985352 64.55262695 -27.91064453 63.87744141 C-24.93164101 57.73574247 -22.10579896 51.54707715 -19.78222656 45.12695312 C-16.75026268 36.88273674 -13.1935237 28.903233 -9.5 20.9375 C-8.55159301 18.884341 -7.60366866 16.83095899 -6.65625 14.77734375 C-5.98335937 13.31917236 -5.98335937 13.31917236 -5.296875 11.83154297 C-3.49737407 7.90258743 -1.74049883 3.95539579 0 0 Z " fill="#F9FBFB" transform="translate(790,117)"/>
<path d="M0 0 C5.21913295 4.84633774 6.86390658 8.47658703 7.125 15.5 C7.19305977 21.97418533 4.31346787 25.56802142 0.06298828 30.27416992 C-0.88738804 31.24420426 -1.84353012 32.2086157 -2.8046875 33.16796875 C-3.31750275 33.68506912 -3.83031799 34.20216949 -4.3586731 34.73493958 C-5.4369348 35.81890697 -6.51777599 36.90031405 -7.60107422 37.97924805 C-9.24731638 39.62232154 -10.87975455 41.27830564 -12.51171875 42.93554688 C-13.56689696 43.99299775 -14.62286071 45.04966548 -15.6796875 46.10546875 C-16.40186966 46.84146553 -16.40186966 46.84146553 -17.13864136 47.59233093 C-21.22445616 51.62366527 -25.73060753 54.83126739 -31.625 55 C-37.45331221 54.7826731 -41.97506697 52.12855493 -46.375 48.4375 C-49.55383553 43.38876121 -49.92661728 39.22948149 -49.375 33.4375 C-46.57066217 25.51936967 -39.8938559 19.71415457 -33.61328125 14.43359375 C-29.92009461 11.14001893 -26.57102045 7.49448461 -23.18359375 3.890625 C-16.46522977 -1.97743144 -8.14484186 -3.77076012 0 0 Z " fill="#2BB197" transform="translate(279.375,200.5625)"/>
<path d="M0 0 C1.81065382 -0.00067522 3.62130755 -0.00164706 5.43196106 -0.00289917 C9.21677518 -0.00436776 13.0015656 -0.00224993 16.78637695 0.00244141 C21.59597524 0.00811764 26.40551744 0.00486769 31.21511364 -0.00113106 C34.953297 -0.00477696 38.69146748 -0.00357941 42.42965126 -0.00100327 C44.20075805 -0.00034402 45.97186607 -0.00112663 47.74297142 -0.00348282 C74.68854061 -0.03145459 74.68854061 -0.03145459 84.39453125 2.1328125 C84.39453125 2.7928125 84.39453125 3.4528125 84.39453125 4.1328125 C47.76453125 3.8028125 11.13453125 3.4728125 -26.60546875 3.1328125 C-26.27546875 67.4828125 -25.94546875 131.8328125 -25.60546875 198.1328125 C0.81515625 198.2565625 0.81515625 198.2565625 27.76953125 198.3828125 C33.29622559 198.41922852 38.82291992 198.45564453 44.51708984 198.49316406 C49.54499323 198.50655573 49.54499323 198.50655573 54.57290649 198.5145874 C56.78298175 198.52066163 58.99304519 198.53458542 61.20303345 198.55511475 C76.75816232 198.69217406 91.87295723 198.38417168 106.39453125 192.1328125 C107.05453125 192.7928125 107.71453125 193.4528125 108.39453125 194.1328125 C106.2574559 194.94782523 104.10901128 195.73301011 101.95703125 196.5078125 C100.76207031 196.94867188 99.56710937 197.38953125 98.3359375 197.84375 C83.50609069 202.22036283 67.3419352 201.43028897 52.0546875 201.3984375 C49.75206969 201.39978762 47.44945217 201.40173103 45.14683533 201.40423584 C40.36063884 201.40716189 35.57451772 201.40296538 30.78833008 201.39355469 C24.64473893 201.38206424 18.50132071 201.38879553 12.35773563 201.40069962 C7.6215635 201.40790416 2.8854329 201.40563846 -1.85074043 201.40044403 C-4.1182412 201.39910863 -6.38574572 201.40075143 -8.65324211 201.40540314 C-11.80270402 201.41045566 -14.95187804 201.40278056 -18.10131836 201.39160156 C-19.5091861 201.39767426 -19.5091861 201.39767426 -20.94549561 201.40386963 C-21.79874924 201.39822998 -22.65200287 201.39259033 -23.53111267 201.38677979 C-24.27412093 201.38602573 -25.01712919 201.38527168 -25.78265285 201.38449478 C-27.60546875 201.1328125 -27.60546875 201.1328125 -29.60546875 199.1328125 C-29.80083864 196.52677797 -29.87035073 194.02718822 -29.85270691 191.42015076 C-29.85512132 190.61468766 -29.85753574 189.80922456 -29.86002332 188.97935349 C-29.86568411 186.26537006 -29.85697937 183.55161954 -29.84838867 180.83764648 C-29.84946096 178.89811133 -29.85139884 176.95857648 -29.85414124 175.01904297 C-29.85900098 169.74030553 -29.85132009 164.46165224 -29.84118819 159.18292499 C-29.83242722 153.6700517 -29.83416475 148.1571812 -29.83454895 142.64430237 C-29.83361149 133.38598211 -29.82491613 124.12769457 -29.8112793 114.86938477 C-29.79554829 104.14935592 -29.7902813 93.4293629 -29.79101485 82.70932335 C-29.79162419 72.41609983 -29.78652769 62.12288804 -29.77822304 51.82966805 C-29.77468295 47.44011404 -29.77285876 43.05056419 -29.77232933 38.66100883 C-29.77132829 33.49746503 -29.76525138 28.33395158 -29.75516319 23.17041779 C-29.75223059 21.26963296 -29.75101435 19.36884464 -29.75159073 17.46805763 C-29.75207782 14.88483584 -29.74646151 12.30170042 -29.73918152 9.7184906 C-29.74073012 8.95625087 -29.74227872 8.19401113 -29.74387425 7.40867323 C-29.71964734 2.24699109 -29.71964734 2.24699109 -28.60546875 1.1328125 C-19.10887635 -0.21679401 -9.56988396 -0.01264717 0 0 Z " fill="#595C5D" transform="translate(941.60546875,71.8671875)"/>
<path d="M0 0 C4.32042522 0.29796036 6.88784379 1.03538891 10.625 3.25 C15.16603355 8.86777346 17.09398273 13.98076771 16.625 21.25 C15.65064879 25.79952968 14.54711298 29.27804308 11.3125 32.6875 C6.47004875 35.50287863 2.52321765 36.84160286 -3.1484375 35.921875 C-8.29146895 34.3699427 -14.01044074 31.7565904 -16.64453125 26.91796875 C-18.27033893 20.97985834 -18.15954581 14.64722332 -16.25 8.8125 C-13.44843806 4.98369868 -10.56375983 1.97958661 -5.9375 0.4375 C-3.95825911 0.2926775 -1.97910997 0.14660074 0 0 Z " fill="#EEC620" transform="translate(107.375,27.75)"/>
<path d="M0 0 C5.26039007 3.50692671 7.56265908 9.29745166 9.1875 15.1875 C9.1875 19.91893307 8.11408236 23.57292312 4.75390625 27.04296875 C0.03139873 31.05886667 -3.12831211 33.0735847 -9.26171875 32.953125 C-15.10559036 32.05819826 -20.90612703 29.02692625 -24.8125 24.5625 C-27.0659128 20.41147643 -27.51877512 16.19743048 -26.8125 11.5625 C-24.85482432 6.16776872 -21.38398623 2.86953259 -16.8125 -0.4375 C-11.41001393 -2.23832869 -5.2276812 -2.52767003 0 0 Z " fill="#1A9F85" transform="translate(194.8125,282.4375)"/>
<path d="M0 0 C4.35181 4.23419351 5.82283455 8.5661168 6.1328125 14.57421875 C5.85176545 19.70746038 3.86156084 23.00589134 0.5625 26.8125 C-3.58597277 30.3538792 -6.23095368 31.47329738 -11.84765625 31.31640625 C-18.10030531 30.39723279 -23.08241133 26.83235556 -27 22 C-27.56627671 19.11439847 -27.81337633 16.99428016 -27.75 14.125 C-27.7411377 13.41263184 -27.73227539 12.70026367 -27.72314453 11.96630859 C-27.50601677 7.61674929 -26.89841522 4.79622663 -23.875 1.625 C-16.72063565 -3.86622554 -7.6329298 -5.25824053 0 0 Z " fill="#2CAC64" transform="translate(30,203)"/>
<path d="M0 0 C0.99 0.495 0.99 0.495 2 1 C2.33 65.35 2.66 129.7 3 196 C70.815 196.495 70.815 196.495 140 197 C140 197.66 140 198.32 140 199 C122.04167504 199.17714289 104.08328294 199.34282521 86.12472725 199.49477577 C77.78670427 199.56559399 69.44874688 199.64019574 61.11083984 199.72363281 C53.84552243 199.79632701 46.58018175 199.86199544 39.3147248 199.91914403 C35.46590999 199.94966561 31.61720017 199.98376141 27.76849747 200.02626419 C24.14890314 200.06612599 20.52935291 200.09662144 16.90961456 200.11981392 C14.94184621 200.13489502 12.97416291 200.16001479 11.00650024 200.18537903 C9.84259766 200.19104385 8.67869507 200.19670868 7.47952271 200.20254517 C5.9557989 200.21637206 5.9557989 200.21637206 4.4012928 200.23047829 C2 200 2 200 0 198 C-0.19320619 195.37912085 -0.2604849 192.86434532 -0.24050903 190.24264526 C-0.24221788 189.43239305 -0.24392673 188.62214083 -0.24568737 187.78733552 C-0.24899623 185.05719127 -0.23795573 182.32728978 -0.22705078 179.59716797 C-0.22648697 177.64615891 -0.22680264 175.69514943 -0.22793579 173.74414062 C-0.22851147 168.43447416 -0.21672238 163.12489738 -0.20278788 157.81525183 C-0.19031633 152.27121779 -0.18911285 146.72718188 -0.18673706 141.18313599 C-0.18051175 130.67880678 -0.16408675 120.17451902 -0.14403808 109.6702081 C-0.12171173 97.71392582 -0.11069388 85.7576416 -0.10064721 73.80134368 C-0.07972141 49.20087277 -0.04452506 24.60043871 0 0 Z " fill="#B7BDC0" transform="translate(534,74)"/>
<path d="M0 0 C4.02014331 -0.04970693 8.04016578 -0.08586387 12.06054688 -0.10986328 C13.4261385 -0.1198759 14.79170894 -0.13349005 16.15722656 -0.15087891 C18.12815912 -0.17533573 20.09925284 -0.1854572 22.0703125 -0.1953125 C23.25383301 -0.20578613 24.43735352 -0.21625977 25.65673828 -0.22705078 C29.11927377 0.00810023 31.80895231 0.64950832 35 2 C36.40745132 4.81490264 36.1409663 7.16499049 36.15821838 10.31472778 C36.16562535 11.29734362 36.16562535 11.29734362 36.17318195 12.29981029 C36.18859499 14.50472116 36.19692781 16.70960283 36.20532227 18.91455078 C36.21489781 20.49118305 36.22490769 22.06781274 36.23532104 23.6444397 C36.26241132 27.93342418 36.28339852 32.22241971 36.30332303 36.51144266 C36.3251572 40.99046765 36.35255843 45.46945841 36.37937927 49.94845581 C36.42934097 58.43403627 36.47426688 66.91963568 36.51740164 75.40525329 C36.56674433 85.06414693 36.62167345 94.72300624 36.67708123 104.38186669 C36.79095464 124.25454583 36.89778198 144.12725772 37 164 C36.01 164.33 35.02 164.66 34 165 C34 111.54 34 58.08 34 3 C22.45 3 10.9 3 -1 3 C-0.67 2.01 -0.34 1.02 0 0 Z " fill="#646768" transform="translate(538,72)"/>
<path d="M0 0 C0.99 0.66 1.98 1.32 3 2 C0.86292465 2.81501273 -1.28551997 3.60019761 -3.4375 4.375 C-4.63246094 4.81585938 -5.82742188 5.25671875 -7.05859375 5.7109375 C-21.92903425 10.09717089 -38.08605518 9.26912527 -53.41015625 9.1953125 C-55.71756364 9.19157321 -58.02497264 9.18873058 -60.3323822 9.18673706 C-66.34754981 9.17917269 -72.3626178 9.15958767 -78.37774658 9.1373291 C-84.53892673 9.11671393 -90.70012328 9.10770214 -96.86132812 9.09765625 C-108.90759538 9.07633364 -120.95378934 9.04228675 -133 9 C-129.87916795 6.9194453 -129.20158363 6.74998596 -125.66026306 6.7484436 C-124.77342331 6.74306076 -123.88658356 6.73767792 -122.97286987 6.73213196 C-122.00205475 6.73625595 -121.03123962 6.74037994 -120.03100586 6.74462891 C-119.00609543 6.74100845 -117.981185 6.737388 -116.92521667 6.73365784 C-114.69409514 6.72675469 -112.46295668 6.72426011 -110.23182487 6.72560501 C-106.68540475 6.72657051 -103.13928758 6.7136196 -99.59291077 6.69662476 C-89.50719647 6.65039569 -79.42150989 6.62579986 -69.33569336 6.61914062 C-63.16586744 6.6140848 -56.99635182 6.58961722 -50.82663155 6.55381393 C-48.48864175 6.54409686 -46.15060878 6.5416391 -43.8126049 6.54698563 C-21.20383067 6.95009064 -21.20383067 6.95009064 0 0 Z " fill="#ABAEB0" transform="translate(1047,264)"/>
<path d="M0 0 C12.24829201 -0.02319912 24.49657877 -0.04095367 36.74488831 -0.05181217 C42.43263527 -0.05702444 48.12036717 -0.06409199 53.80810547 -0.07543945 C59.29996895 -0.08632722 64.79181796 -0.09228932 70.28369141 -0.09487724 C72.37597888 -0.09672088 74.46826558 -0.10032102 76.56054688 -0.10573006 C79.49741306 -0.11301865 82.43421993 -0.11398765 85.37109375 -0.11352539 C86.66043068 -0.1189183 86.66043068 -0.1189183 87.97581482 -0.12442017 C101.31832675 -0.10178593 101.31832675 -0.10178593 104.8125 2.1875 C106.47585534 4.72630551 107.83123378 7.19496107 109 10 C108.67 10.99 108.34 11.98 108 13 C107.34 13 106.68 13 106 13 C105.32880451 11.5437455 104.66318193 10.08492133 104 8.625 C103.62875 7.81289062 103.2575 7.00078125 102.875 6.1640625 C102 4 102 4 102 2 C68.01 2 34.02 2 -1 2 C-0.67 1.34 -0.34 0.68 0 0 Z " fill="#5C5E5F" transform="translate(740,233)"/>
<path d="M0 0 C13.99509363 -0.02337086 27.99018424 -0.04093326 41.98529339 -0.05181217 C48.48361068 -0.0570332 54.98191486 -0.06411676 61.48022461 -0.07543945 C67.75013673 -0.08629596 74.02003625 -0.09228272 80.28995705 -0.09487724 C82.68337007 -0.09672649 85.07678239 -0.10033755 87.47019005 -0.10573006 C90.81957878 -0.11297708 94.16891525 -0.11398938 97.51831055 -0.11352539 C98.51021393 -0.11712067 99.50211731 -0.12071594 100.52407837 -0.12442017 C101.89748131 -0.12235817 101.89748131 -0.12235817 103.29862976 -0.12025452 C104.48636002 -0.12163721 104.48636002 -0.12163721 105.69808483 -0.12304783 C108.20810561 0.01112419 110.54950979 0.45297482 113 1 C113 1.66 113 2.32 113 3 C112.4297793 2.99723462 111.8595586 2.99446924 111.27205849 2.99162006 C97.41000975 2.92542415 83.54798862 2.87594202 69.68581581 2.84456348 C62.98221798 2.82908148 56.27872552 2.80796672 49.57519531 2.77368164 C43.11077119 2.74118115 36.64645674 2.72316663 30.18195724 2.71536827 C27.71068977 2.709808 25.23942857 2.69895081 22.76820755 2.68280983 C19.31750578 2.66115956 15.86726222 2.6580279 12.41650391 2.65942383 C11.38576248 2.648638 10.35502106 2.63785217 9.29304504 2.6267395 C8.35632462 2.63086349 7.41960419 2.63498749 6.45449829 2.63923645 C5.63778971 2.63647107 4.82108112 2.63370569 3.97962379 2.63085651 C2.99971002 2.81358254 2.99971002 2.81358254 2 3 C1.34 3.99 0.68 4.98 0 6 C0 4.02 0 2.04 0 0 Z " fill="#5E5F61" transform="translate(913,73)"/>
<path d="M0 0 C1.45247241 0.00502586 2.90494651 0.00958684 4.35742188 0.01367188 C7.88415015 0.02458958 11.41081402 0.04179414 14.9375 0.0625 C15.4325 1.5475 15.4325 1.5475 15.9375 3.0625 C2.4075 3.3925 -11.1225 3.7225 -25.0625 4.0625 C-25.0625 3.0725 -25.0625 2.0825 -25.0625 1.0625 C-16.70821234 -0.12296875 -8.41489405 -0.05090622 0 0 Z " fill="#707273" transform="translate(795.0625,71.9375)"/>
<path d="M0 0 C0 0.66 0 1.32 0 2 C-1.32916561 2.63381508 -2.66364609 3.25648484 -4 3.875 C-4.7425 4.22304687 -5.485 4.57109375 -6.25 4.9296875 C-13.74502857 7.84678669 -20.46754942 8.3123058 -28.4375 8.25 C-29.91573242 8.26160156 -29.91573242 8.26160156 -31.42382812 8.2734375 C-37.58498068 8.25710575 -43.03667101 7.5540423 -49 6 C-49 5.67 -49 5.34 -49 5 C-43.61428002 3.87275628 -43.61428002 3.87275628 -40.8125 4.453125 C-25.70242977 7.39119421 -13.93674931 0 0 0 Z " fill="#4D4F51" transform="translate(453,237)"/>
<path d="M0 0 C5.28782115 1.18755316 10.41978589 1.25862104 15.8125 1.25 C16.65377441 1.25056396 17.49504883 1.25112793 18.36181641 1.25170898 C21.85821381 1.22096443 24.52657212 1.17864263 27.875 0.0625 C29.43618428 -0.00490865 31.0000252 -0.02264456 32.5625 0 C33.77486328 0.01353516 33.77486328 0.01353516 35.01171875 0.02734375 C35.93404297 0.04474609 35.93404297 0.04474609 36.875 0.0625 C32.2864329 4.6510671 24.78391241 4.33216809 18.65063477 4.390625 C17.18388306 4.38289062 17.18388306 4.38289062 15.6875 4.375 C14.17144165 4.37306641 14.17144165 4.37306641 12.62475586 4.37109375 C5.0148281 4.27352276 -1.84841505 3.4088844 -9.125 1.0625 C-9.125 0.7325 -9.125 0.4025 -9.125 0.0625 C-5.66979549 -0.79829137 -3.41307195 -0.96346865 0 0 Z " fill="#434547" transform="translate(1175.125,240.9375)"/>
<path d="M0 0 C6.19801432 11.77101879 5.22785195 26.50303395 1.65625 38.9375 C1.33140625 39.9584375 1.33140625 39.9584375 1 41 C0.67 41 0.34 41 0 41 C0.00523682 40.06728271 0.01047363 39.13456543 0.01586914 38.17358398 C0.03299302 34.68659843 0.04548993 31.1996581 0.05493164 27.71264648 C0.05993555 26.2084075 0.06674073 24.70417332 0.07543945 23.19995117 C0.08767884 21.02781991 0.09326786 18.85575341 0.09765625 16.68359375 C0.10551147 14.72764282 0.10551147 14.72764282 0.11352539 12.73217773 C0.0710557 8.966469 0.0710557 8.966469 -0.56860352 5.14477539 C-1 2 -1 2 0 0 Z " fill="#C9CED1" transform="translate(505,193)"/>
<path d="M0 0 C8.96193704 -0.02314078 17.92386384 -0.04092397 26.8858242 -0.05181217 C31.04694039 -0.05703719 35.20803618 -0.06412795 39.36914062 -0.07543945 C43.38265815 -0.08628184 47.39615601 -0.09227972 51.40968704 -0.09487724 C52.94313491 -0.09672905 54.47658168 -0.100345 56.01002121 -0.10573006 C58.15302632 -0.1129584 60.29594956 -0.11399018 62.43896484 -0.11352539 C64.27096939 -0.11685631 64.27096939 -0.11685631 66.13998413 -0.12025452 C69 0 69 0 71 1 C71 1.66 71 2.32 71 3 C70.14711395 2.83923477 69.29422791 2.67846954 68.41549683 2.51283264 C65.01399411 2.0021012 61.7896458 1.84149323 58.35205078 1.79467773 C57.05115509 1.77473251 55.7502594 1.75478729 54.40994263 1.73423767 C53.0050671 1.71725841 51.60019035 1.70037943 50.1953125 1.68359375 C48.74656616 1.66300003 47.2978255 1.64200296 45.84909058 1.62062073 C42.05160142 1.56564953 38.2540603 1.51613114 34.45648193 1.46777344 C30.57510805 1.41737522 26.69380884 1.36178516 22.8125 1.30664062 C15.20839672 1.19936465 7.60423099 1.09785295 0 1 C0 0.67 0 0.34 0 0 Z " fill="#DBDFE0" transform="translate(952,109)"/>
<path d="M0 0 C3.41664873 -0.02908357 6.8332655 -0.04682691 10.25 -0.0625 C11.70212891 -0.07506836 11.70212891 -0.07506836 13.18359375 -0.08789062 C14.11816406 -0.09111328 15.05273438 -0.09433594 16.015625 -0.09765625 C16.87446289 -0.10289307 17.73330078 -0.10812988 18.61816406 -0.11352539 C20.88670744 -0.00539986 22.82631715 0.36417577 25 1 C25 1.66 25 2.32 25 3 C16.42 3 7.84 3 -1 3 C-0.67 2.01 -0.34 1.02 0 0 Z " fill="#5C5F60" transform="translate(412,66)"/>
<path d="M0 0 C1.16499023 -0.00193359 1.16499023 -0.00193359 2.35351562 -0.00390625 C3.55717773 0.00189453 3.55717773 0.00189453 4.78515625 0.0078125 C5.58373047 0.00394531 6.38230469 0.00007813 7.20507812 -0.00390625 C11.21761191 0.00274252 14.93208293 0.13612111 18.84765625 1.1328125 C18.84765625 1.7928125 18.84765625 2.4528125 18.84765625 3.1328125 C9.93765625 3.1328125 1.02765625 3.1328125 -8.15234375 3.1328125 C-8.15234375 2.4728125 -8.15234375 1.8128125 -8.15234375 1.1328125 C-5.36822616 0.34627682 -2.89011058 0.00464808 0 0 Z " fill="#595B5C" transform="translate(1185.15234375,65.8671875)"/>
<path d="M0 0 C4.14194642 0.69422454 7.88001259 1.97636631 11.8125 3.4375 C16.84771849 5.26945121 21.77026492 6.84945828 27 8 C27 8.99 27 9.98 27 11 C6.33013094 6.17874022 6.33013094 6.17874022 1 3 C0.67 2.01 0.34 1.02 0 0 Z " fill="#DEE2E3" transform="translate(1142,173)"/>
<path d="M0 0 C2.56172084 2.56172084 2.50058697 4.13364122 3 7.6875 C3.69646422 12.28084733 4.59283812 16.57749124 6 21 C5.01 21 4.02 21 3 21 C-1.681699 8.27163083 -1.681699 8.27163083 -1 2 C-0.67 1.34 -0.34 0.68 0 0 Z " fill="#585A5B" transform="translate(1112,128)"/>
<path d="M0 0 C0.99 0.66 1.98 1.32 3 2 C-8.33200293 6.04607746 -17.90338082 8.19200983 -30 8 C-30 7.67 -30 7.34 -30 7 C-28.87722656 6.80664062 -27.75445313 6.61328125 -26.59765625 6.4140625 C-12.87241873 4.55863394 -12.87241873 4.55863394 0 0 Z " fill="#747676" transform="translate(1047,264)"/>
<path d="M0 0 C2.51317217 3.14903501 4.40647572 6.42034121 6.25 10 C7.06210937 11.546875 7.06210937 11.546875 7.890625 13.125 C9.03001623 16.07778854 9.18510315 17.133704 8 20 C5.32077287 16.71552577 3.54598373 13.26922257 1.75 9.4375 C1.20859375 8.30183594 0.6671875 7.16617188 0.109375 5.99609375 C-1 3 -1 3 0 0 Z " fill="#D6DADC" transform="translate(841,137)"/>
<path d="M0 0 C5.05092193 1.11120283 9.8387443 3.07683055 14.6875 4.84375 C17.13085756 5.69662009 19.47876231 6.44532771 22 7 C22 7.99 22 8.98 22 10 C14.02443261 8.31444194 7.12138499 5.98608496 0 2 C0 1.34 0 0.68 0 0 Z " fill="#4C4F50" transform="translate(389,140)"/>
<path d="M0 0 C20.295 0.495 20.295 0.495 41 1 C41 1.33 41 1.66 41 2 C27.47 2.33 13.94 2.66 0 3 C0 2.01 0 1.02 0 0 Z " fill="#5D5E5F" transform="translate(770,73)"/>
<path d="M0 0 C0.66 0 1.32 0 2 0 C3.36645701 2.59836136 4.71830669 5.20265556 6.0625 7.8125 C6.45244141 8.55048828 6.84238281 9.28847656 7.24414062 10.04882812 C7.60830078 10.76103516 7.97246094 11.47324219 8.34765625 12.20703125 C8.68804932 12.8616333 9.02844238 13.51623535 9.37915039 14.19067383 C10 16 10 16 9 19 C5.8525269 16.35347607 4.50027732 13.20060805 2.8125 9.5 C2.28269531 8.3553125 1.75289062 7.210625 1.20703125 6.03125 C0 3 0 3 0 0 Z " fill="#BDC3C8" transform="translate(874,213)"/>
<path d="M0 0 C6.76776172 1.9852101 12.91320534 3.86980801 17 10 C12.4254929 9.46182269 9.78570882 7.52380588 6 5 C3.36476292 3.86584733 0.71557904 2.93640657 -2 2 C-1.34 1.34 -0.68 0.68 0 0 Z " fill="#5E6061" transform="translate(462,72)"/>
<path d="M0 0 C7.02952752 0.4535179 12.5849443 2.12059087 19 5 C19 5.66 19 6.32 19 7 C12.26137773 5.56390017 5.63370443 3.85991713 -1 2 C-0.67 1.34 -0.34 0.68 0 0 Z " fill="#5F6162" transform="translate(1028,75)"/>
<path d="M0 0 C5.61 0.66 11.22 1.32 17 2 C17 2.99 17 3.98 17 5 C10.58518742 5.42765417 5.11404596 3.85743168 -1 2 C-0.67 1.34 -0.34 0.68 0 0 Z " fill="#B6BDC2" transform="translate(389,273)"/>
<path d="M0 0 C0 0.66 0 1.32 0 2 C-1.41478135 2.64995297 -2.83191487 3.29478722 -4.25 3.9375 C-5.43335938 4.47697266 -5.43335938 4.47697266 -6.640625 5.02734375 C-11.22073307 6.91550089 -15.03366162 7.09550651 -20 7 C-20 6.34 -20 5.68 -20 5 C-18.86820312 4.72285156 -17.73640625 4.44570312 -16.5703125 4.16015625 C-15.08851098 3.79439512 -13.60674182 3.42850289 -12.125 3.0625 C-11.37863281 2.88009766 -10.63226563 2.69769531 -9.86328125 2.50976562 C-6.61466819 1.70492906 -3.27193292 0 0 0 Z " fill="#626466" transform="translate(453,237)"/>
<path d="M0 0 C3.90875675 7.10022828 3.09239207 15.21157042 2.5625 23.0625 C2.51029297 23.92810547 2.45808594 24.79371094 2.40429688 25.68554688 C2.2763539 27.79079032 2.13916029 29.89546828 2 32 C1.67 32 1.34 32 1 32 C0.97494385 31.33991943 0.9498877 30.67983887 0.92407227 29.99975586 C0.80728248 26.97884631 0.68493554 23.95818578 0.5625 20.9375 C0.52318359 19.89916016 0.48386719 18.86082031 0.44335938 17.79101562 C0.18000438 11.31099175 0.18000438 11.31099175 -0.59765625 4.87890625 C-1 2 -1 2 0 0 Z " fill="#D5DADC" transform="translate(505,193)"/>
<path d="M0 0 C-5.84758937 3.89839291 -13.10611082 4.29973431 -20 4 C-20 3.34 -20 2.68 -20 2 C-14.19971953 -0.90014024 -6.31832164 -0.10029082 0 0 Z " fill="#C3C9CE" transform="translate(1224,274)"/>
<path d="M0 0 C1.29012683 3.87038049 0.54732624 6.15594427 -0.3125 10.125 C-0.57675781 11.38570312 -0.84101562 12.64640625 -1.11328125 13.9453125 C-1.40589844 14.95335938 -1.69851563 15.96140625 -2 17 C-2.66 17.33 -3.32 17.66 -4 18 C-5.4002792 12.53891111 -4.42705634 8.30723432 -3 3 C-2.34 3 -1.68 3 -1 3 C-0.67 2.01 -0.34 1.02 0 0 Z " fill="#505254" transform="translate(1116,104)"/>
<path d="M0 0 C0.99 0 1.98 0 3 0 C5.29370226 7.82316305 6.433422 14.84524526 6 23 C5.67 23 5.34 23 5 23 C5 19.7 5 16.4 5 13 C4.34 13 3.68 13 3 13 C2.01 8.71 1.02 4.42 0 0 Z " fill="#D4D8DA" transform="translate(1078,197)"/>
<path d="M0 0 C0.6875 2.0625 0.6875 2.0625 1 4 C0.113125 3.938125 -0.77375 3.87625 -1.6875 3.8125 C-5.38032702 4.02152794 -6.9225707 5.08700341 -10 7 C-10.99 6.67 -11.98 6.34 -13 6 C-12.01 5.67 -11.02 5.34 -10 5 C-9.67 4.01 -9.34 3.02 -9 2 C-3.69230769 -1.23076923 -3.69230769 -1.23076923 0 0 Z " fill="#404344" transform="translate(1135,213)"/>
<path d="M0 0 C5.4389165 -0.21755666 9.87080814 -0.10428384 15 2 C15 2.33 15 2.66 15 3 C9.72 3 4.44 3 -1 3 C-0.67 2.01 -0.34 1.02 0 0 Z " fill="#686A6B" transform="translate(558,72)"/>
<path d="M0 0 C8.54633092 -0.32870504 17.10420044 0.56453328 25 4 C24.67 4.66 24.34 5.32 24 6 C23.10539062 5.80664062 22.21078125 5.61328125 21.2890625 5.4140625 C14.20293431 3.88805195 7.11348936 2.39319492 0 1 C0 0.67 0 0.34 0 0 Z " fill="#B9C0C4" transform="translate(433,66)"/>
<path d="M0 0 C0.33 4.62 0.66 9.24 1 14 C0.01 13.67 -0.98 13.34 -2 13 C-2.96070434 10.11788698 -3.10581883 8.30149956 -3.0625 5.3125 C-3.05347656 4.50425781 -3.04445312 3.69601562 -3.03515625 2.86328125 C-3.02355469 2.24839844 -3.01195312 1.63351562 -3 1 C-1 0 -1 0 0 0 Z " fill="#DE7169" transform="translate(37,262)"/>
<path d="M0 0 C1.77111844 0.47811177 3.54188483 0.9575278 5.3125 1.4375 C6.29863281 1.70433594 7.28476562 1.97117188 8.30078125 2.24609375 C10.21517526 2.78079425 12.11433615 3.37144538 14 4 C14 4.99 14 5.98 14 7 C8.65155992 6.46515599 4.64203897 4.53309233 0 2 C0 1.34 0 0.68 0 0 Z " fill="#C4CACD" transform="translate(378,174)"/>
<path d="M0 0 C0.33 0 0.66 0 1 0 C1.7938642 7.21805755 2.07875823 13.80827843 1 21 C0.67 21 0.34 21 0 21 C-0.19569589 18.43788925 -0.38180612 15.87567609 -0.5625 13.3125 C-0.61857422 12.59126953 -0.67464844 11.87003906 -0.73242188 11.12695312 C-0.99955159 7.22685936 -1.00887596 3.78888972 0 0 Z " fill="#B0B6BB" transform="translate(1076,121)"/>
<path d="M0 0 C3 1 3 1 4.38671875 3.43359375 C4.81597656 4.42488281 5.24523437 5.41617188 5.6875 6.4375 C6.34298828 7.92056641 6.34298828 7.92056641 7.01171875 9.43359375 C8 12 8 12 8 14 C5 13 5 13 3.61328125 10.56640625 C2.96939453 9.07947266 2.96939453 9.07947266 2.3125 7.5625 C1.87550781 6.57378906 1.43851563 5.58507812 0.98828125 4.56640625 C0 2 0 2 0 0 Z " fill="#545657" transform="translate(809,159)"/>
<path d="M0 0 C5.94 0.99 5.94 0.99 12 2 C12 2.99 12 3.98 12 5 C3.42857143 4.14285714 3.42857143 4.14285714 0 2 C0 1.34 0 0.68 0 0 Z " fill="#E3E7E7" transform="translate(392,179)"/>
<path d="M0 0 C0.88300781 0.19464844 1.76601562 0.38929688 2.67578125 0.58984375 C3.67158203 0.82380859 3.67158203 0.82380859 4.6875 1.0625 C4.6875 1.7225 4.6875 2.3825 4.6875 3.0625 C2.74933265 2.9483134 0.81194901 2.82076577 -1.125 2.6875 C-2.20394531 2.61789063 -3.28289062 2.54828125 -4.39453125 2.4765625 C-7.3125 2.0625 -7.3125 2.0625 -10.3125 0.0625 C-6.51681539 -0.91548721 -3.8119001 -0.86403069 0 0 Z " fill="#6D6F71" transform="translate(1176.3125,240.9375)"/>
<path d="M0 0 C0.66 0 1.32 0 2 0 C1.40546697 10.55808656 1.40546697 10.55808656 -2 15 C-3.53760842 11.92478317 -2.36599236 9.65324882 -1.5625 6.375 C-1.27503906 5.18648437 -0.98757813 3.99796875 -0.69140625 2.7734375 C-0.46324219 1.85820312 -0.23507812 0.94296875 0 0 Z " fill="#CFD4D7" transform="translate(1080,227)"/>
<path d="M0 0 C0.99 0 1.98 0 3 0 C1.31326082 4.49797113 -0.81673892 8.72886302 -3 13 C-4.15019009 9.54942972 -3.80497206 8.69840756 -2.625 5.375 C-2.34914063 4.57835937 -2.07328125 3.78171875 -1.7890625 2.9609375 C-1 1 -1 1 0 0 Z " fill="#4F5153" transform="translate(746,126)"/>
<path d="M0 0 C0.66 0 1.32 0 2 0 C2 3.63 2 7.26 2 11 C1.34 11 0.68 11 0 11 C-1.62651522 7.74696956 -1.11453156 4.60774398 -1 1 C-0.67 0.67 -0.34 0.34 0 0 Z " fill="#3DB396" transform="translate(169,293)"/>
<path d="M0 0 C0.99 0.33 1.98 0.66 3 1 C4.1875 4.0625 4.1875 4.0625 5 7 C2.69 6.67 0.38 6.34 -2 6 C-1.34 4.02 -0.68 2.04 0 0 Z " fill="#484A4B" transform="translate(683,265)"/>
<path d="M0 0 C3.82448388 1.47480097 5.25042364 3.45294912 7.3125 6.9375 C7.84488281 7.81277344 8.37726563 8.68804687 8.92578125 9.58984375 C10 12 10 12 9 15 C8.67 14.01 8.34 13.02 8 12 C7.34 12 6.68 12 6 12 C4 8 2 4 0 0 Z " fill="#404243" transform="translate(1259,176)"/>
<path d="M0 0 C3.54971796 0.60852308 6.76693609 1.38346804 10 3 C10.33 3.99 10.66 4.98 11 6 C6.64477147 5.49357808 3.55760365 4.61588503 0 2 C0 1.34 0 0.68 0 0 Z " fill="#BAC0C5" transform="translate(1142,173)"/>
<path d="M0 0 C3 1 3 1 4.75 3.875 C6 7 6 7 5 10 C4.34 10 3.68 10 3 10 C0 3.375 0 3.375 0 0 Z " fill="#515354" transform="translate(843,236)"/>
<path d="M0 0 C1.75 0.0625 1.75 0.0625 4 1 C5.59501537 3.24164322 6.74543018 5.53566643 8 8 C4.11137013 6.73882275 2.10624401 5.54735833 0 2 C0 1.34 0 0.68 0 0 Z " fill="#3A3D3E" transform="translate(1116,149)"/>
<path d="M0 0 C4.71403788 0.47939368 8.66579301 0.96834048 13 3 C13 3.66 13 4.32 13 5 C8.15340923 4.40895235 4.39251833 3.02055843 0 1 C0 0.67 0 0.34 0 0 Z " fill="#484A4C" transform="translate(1159,143)"/>
<path d="M0 0 C3.82601307 1.45124634 5.22329124 3.35774704 7 7 C7 7.99 7 8.98 7 10 C6.01 10 5.02 10 4 10 C3.32845067 8.71086513 2.66291141 7.41859796 2 6.125 C1.62875 5.40570313 1.2575 4.68640625 0.875 3.9453125 C0 2 0 2 0 0 Z " fill="#DEE2E3" transform="translate(810,72)"/>
<path d="M0 0 C1.21236328 0.01353516 1.21236328 0.01353516 2.44921875 0.02734375 C3.37154297 0.04474609 3.37154297 0.04474609 4.3125 0.0625 C1.44950494 2.92549506 -0.34602284 3.05671225 -4.375 3.125 C-5.468125 3.104375 -6.56125 3.08375 -7.6875 3.0625 C-7.6875 2.4025 -7.6875 1.7425 -7.6875 1.0625 C-4.80538698 0.10179566 -2.98899956 -0.04331883 0 0 Z " fill="#636567" transform="translate(1207.6875,240.9375)"/>
<path d="M0 0 C2.64465038 3.1254959 3.84414715 6.08788267 5 10 C4.01 10 3.02 10 2 10 C1.01 7.03 0.02 4.06 -1 1 C-0.67 0.67 -0.34 0.34 0 0 Z " fill="#B1B9BF" transform="translate(841,137)"/>
<path d="M0 0 C0.66 0.33 1.32 0.66 2 1 C-1.16952847 4.26008643 -4.39937989 7.22237877 -8 10 C-6.07517084 3.33712984 -6.07517084 3.33712984 -3 1 C-2.01 0.67 -1.02 0.34 0 0 Z " fill="#ECC7C4" transform="translate(240,104)"/>
</svg>
